<mxfile host="app.diagrams.net" modified="2021-06-15T06:34:19.427Z" agent="5.0 (Macintosh; Intel Mac OS X 10_15_7) AppleWebKit/537.36 (KHTML, like Gecko) Chrome/91.0.4472.101 Safari/537.36" etag="Hz8f5b-G0zLlmGDVMqru" version="14.7.7" type="github" pages="8">
  <diagram id="r_dpZRQQ6k5GukbJklo0" name="业务流程图">
    <mxGraphModel dx="946" dy="614" grid="1" gridSize="10" guides="1" tooltips="1" connect="1" arrows="1" fold="1" page="1" pageScale="1" pageWidth="827" pageHeight="1169" math="0" shadow="0">
      <root>
        <mxCell id="0" />
        <mxCell id="1" parent="0" />
        <mxCell id="ywe2W4ERjsgmAIUgEcNF-5" value="优力（客户）" style="text;html=1;strokeColor=none;fillColor=none;align=center;verticalAlign=middle;whiteSpace=wrap;rounded=0;fontSize=14;fontStyle=1" parent="1" vertex="1">
          <mxGeometry x="30" y="30" width="100" height="20" as="geometry" />
        </mxCell>
        <mxCell id="ywe2W4ERjsgmAIUgEcNF-6" value="供应商" style="text;html=1;strokeColor=none;fillColor=none;align=center;verticalAlign=middle;whiteSpace=wrap;rounded=0;fontSize=14;fontStyle=1" parent="1" vertex="1">
          <mxGeometry x="180" y="30" width="100" height="20" as="geometry" />
        </mxCell>
        <mxCell id="ywe2W4ERjsgmAIUgEcNF-7" value="关务员" style="text;html=1;strokeColor=none;fillColor=none;align=center;verticalAlign=middle;whiteSpace=wrap;rounded=0;fontSize=14;fontStyle=1" parent="1" vertex="1">
          <mxGeometry x="335" y="30" width="100" height="20" as="geometry" />
        </mxCell>
        <mxCell id="ywe2W4ERjsgmAIUgEcNF-40" value="" style="edgeStyle=orthogonalEdgeStyle;rounded=0;orthogonalLoop=1;jettySize=auto;html=1;" parent="1" source="ywe2W4ERjsgmAIUgEcNF-9" edge="1">
          <mxGeometry relative="1" as="geometry">
            <mxPoint x="80" y="140" as="targetPoint" />
          </mxGeometry>
        </mxCell>
        <mxCell id="ywe2W4ERjsgmAIUgEcNF-9" value="接收邮件&lt;br&gt;订单" style="rounded=0;whiteSpace=wrap;html=1;dashed=1;" parent="1" vertex="1">
          <mxGeometry x="35" y="80" width="90" height="40" as="geometry" />
        </mxCell>
        <mxCell id="ywe2W4ERjsgmAIUgEcNF-42" style="edgeStyle=orthogonalEdgeStyle;rounded=0;orthogonalLoop=1;jettySize=auto;html=1;entryX=0.5;entryY=0;entryDx=0;entryDy=0;" parent="1" source="ywe2W4ERjsgmAIUgEcNF-10" target="ywe2W4ERjsgmAIUgEcNF-17" edge="1">
          <mxGeometry relative="1" as="geometry" />
        </mxCell>
        <mxCell id="ywe2W4ERjsgmAIUgEcNF-10" value="客户系统导出&lt;br&gt;excel订单" style="rounded=0;whiteSpace=wrap;html=1;dashed=1;" parent="1" vertex="1">
          <mxGeometry x="35" y="140" width="90" height="40" as="geometry" />
        </mxCell>
        <mxCell id="ywe2W4ERjsgmAIUgEcNF-45" value="" style="edgeStyle=orthogonalEdgeStyle;rounded=0;orthogonalLoop=1;jettySize=auto;html=1;entryX=0.5;entryY=0;entryDx=0;entryDy=0;exitX=0.5;exitY=1;exitDx=0;exitDy=0;" parent="1" source="ywe2W4ERjsgmAIUgEcNF-14" target="AOkjYl5HRvv-X5oUTe_U-1" edge="1">
          <mxGeometry relative="1" as="geometry" />
        </mxCell>
        <mxCell id="ywe2W4ERjsgmAIUgEcNF-14" value="完善订单信息" style="rounded=0;whiteSpace=wrap;html=1;" parent="1" vertex="1">
          <mxGeometry x="190" y="200" width="90" height="40" as="geometry" />
        </mxCell>
        <mxCell id="ywe2W4ERjsgmAIUgEcNF-46" style="edgeStyle=orthogonalEdgeStyle;rounded=0;orthogonalLoop=1;jettySize=auto;html=1;entryX=0.5;entryY=0;entryDx=0;entryDy=0;" parent="1" source="ywe2W4ERjsgmAIUgEcNF-15" target="ywe2W4ERjsgmAIUgEcNF-16" edge="1">
          <mxGeometry relative="1" as="geometry" />
        </mxCell>
        <mxCell id="ywe2W4ERjsgmAIUgEcNF-15" value="下载&lt;br&gt;报关资料" style="rounded=0;whiteSpace=wrap;html=1;" parent="1" vertex="1">
          <mxGeometry x="190" y="320" width="90" height="40" as="geometry" />
        </mxCell>
        <mxCell id="ywe2W4ERjsgmAIUgEcNF-47" style="edgeStyle=orthogonalEdgeStyle;rounded=0;orthogonalLoop=1;jettySize=auto;html=1;entryX=0.5;entryY=0;entryDx=0;entryDy=0;" parent="1" source="ywe2W4ERjsgmAIUgEcNF-16" target="ywe2W4ERjsgmAIUgEcNF-19" edge="1">
          <mxGeometry relative="1" as="geometry" />
        </mxCell>
        <mxCell id="ywe2W4ERjsgmAIUgEcNF-16" value="完善&lt;br&gt;报关资料" style="rounded=0;whiteSpace=wrap;html=1;dashed=1;" parent="1" vertex="1">
          <mxGeometry x="190" y="390" width="90" height="40" as="geometry" />
        </mxCell>
        <mxCell id="ywe2W4ERjsgmAIUgEcNF-43" style="edgeStyle=orthogonalEdgeStyle;rounded=0;orthogonalLoop=1;jettySize=auto;html=1;entryX=0;entryY=0.5;entryDx=0;entryDy=0;" parent="1" source="ywe2W4ERjsgmAIUgEcNF-17" target="ywe2W4ERjsgmAIUgEcNF-18" edge="1">
          <mxGeometry relative="1" as="geometry">
            <Array as="points">
              <mxPoint x="80" y="300" />
              <mxPoint x="158" y="300" />
              <mxPoint x="158" y="150" />
            </Array>
          </mxGeometry>
        </mxCell>
        <mxCell id="jQi_kWSMdtmCzvQReYv--2" value="" style="edgeStyle=orthogonalEdgeStyle;rounded=0;orthogonalLoop=1;jettySize=auto;html=1;" parent="1" source="ywe2W4ERjsgmAIUgEcNF-17" target="jQi_kWSMdtmCzvQReYv--1" edge="1">
          <mxGeometry relative="1" as="geometry" />
        </mxCell>
        <mxCell id="ywe2W4ERjsgmAIUgEcNF-17" value="导入excel&lt;br&gt;订单" style="rounded=0;whiteSpace=wrap;html=1;" parent="1" vertex="1">
          <mxGeometry x="35" y="210" width="90" height="40" as="geometry" />
        </mxCell>
        <mxCell id="ywe2W4ERjsgmAIUgEcNF-44" value="" style="edgeStyle=orthogonalEdgeStyle;rounded=0;orthogonalLoop=1;jettySize=auto;html=1;" parent="1" source="ywe2W4ERjsgmAIUgEcNF-18" edge="1">
          <mxGeometry relative="1" as="geometry">
            <mxPoint x="235" y="200" as="targetPoint" />
          </mxGeometry>
        </mxCell>
        <mxCell id="ywe2W4ERjsgmAIUgEcNF-18" value="接受订单&lt;br&gt;通知" style="rounded=0;whiteSpace=wrap;html=1;" parent="1" vertex="1">
          <mxGeometry x="190" y="130" width="90" height="40" as="geometry" />
        </mxCell>
        <mxCell id="ywe2W4ERjsgmAIUgEcNF-48" style="edgeStyle=orthogonalEdgeStyle;rounded=0;orthogonalLoop=1;jettySize=auto;html=1;entryX=0.5;entryY=0;entryDx=0;entryDy=0;" parent="1" source="ywe2W4ERjsgmAIUgEcNF-19" target="ywe2W4ERjsgmAIUgEcNF-20" edge="1">
          <mxGeometry relative="1" as="geometry" />
        </mxCell>
        <mxCell id="ywe2W4ERjsgmAIUgEcNF-19" value="上传&lt;br&gt;报关资料" style="rounded=0;whiteSpace=wrap;html=1;" parent="1" vertex="1">
          <mxGeometry x="190" y="450" width="90" height="40" as="geometry" />
        </mxCell>
        <mxCell id="ywe2W4ERjsgmAIUgEcNF-49" value="" style="edgeStyle=orthogonalEdgeStyle;rounded=0;orthogonalLoop=1;jettySize=auto;html=1;" parent="1" source="ywe2W4ERjsgmAIUgEcNF-20" target="ywe2W4ERjsgmAIUgEcNF-21" edge="1">
          <mxGeometry relative="1" as="geometry" />
        </mxCell>
        <mxCell id="ywe2W4ERjsgmAIUgEcNF-20" value="提交报关资料" style="rounded=0;whiteSpace=wrap;html=1;" parent="1" vertex="1">
          <mxGeometry x="190" y="520" width="90" height="40" as="geometry" />
        </mxCell>
        <mxCell id="ywe2W4ERjsgmAIUgEcNF-50" style="edgeStyle=orthogonalEdgeStyle;rounded=0;orthogonalLoop=1;jettySize=auto;html=1;entryX=0;entryY=0.5;entryDx=0;entryDy=0;" parent="1" source="ywe2W4ERjsgmAIUgEcNF-21" target="ywe2W4ERjsgmAIUgEcNF-22" edge="1">
          <mxGeometry relative="1" as="geometry" />
        </mxCell>
        <mxCell id="ywe2W4ERjsgmAIUgEcNF-21" value="通知关务人员&lt;br&gt;审核" style="rounded=0;whiteSpace=wrap;html=1;" parent="1" vertex="1">
          <mxGeometry x="190" y="585" width="90" height="40" as="geometry" />
        </mxCell>
        <mxCell id="ywe2W4ERjsgmAIUgEcNF-51" style="edgeStyle=orthogonalEdgeStyle;rounded=0;orthogonalLoop=1;jettySize=auto;html=1;" parent="1" source="ywe2W4ERjsgmAIUgEcNF-22" edge="1">
          <mxGeometry relative="1" as="geometry">
            <mxPoint x="390" y="570" as="targetPoint" />
          </mxGeometry>
        </mxCell>
        <mxCell id="ywe2W4ERjsgmAIUgEcNF-22" value="接收报关资料&lt;br&gt;审核通知" style="rounded=0;whiteSpace=wrap;html=1;" parent="1" vertex="1">
          <mxGeometry x="345" y="500" width="90" height="40" as="geometry" />
        </mxCell>
        <mxCell id="ywe2W4ERjsgmAIUgEcNF-52" style="edgeStyle=orthogonalEdgeStyle;rounded=0;orthogonalLoop=1;jettySize=auto;html=1;entryX=0.5;entryY=0;entryDx=0;entryDy=0;" parent="1" source="ywe2W4ERjsgmAIUgEcNF-24" target="ywe2W4ERjsgmAIUgEcNF-25" edge="1">
          <mxGeometry relative="1" as="geometry" />
        </mxCell>
        <mxCell id="ywe2W4ERjsgmAIUgEcNF-24" value="审核&lt;br&gt;报关资料" style="rounded=0;whiteSpace=wrap;html=1;" parent="1" vertex="1">
          <mxGeometry x="345" y="570" width="90" height="40" as="geometry" />
        </mxCell>
        <mxCell id="ywe2W4ERjsgmAIUgEcNF-53" style="edgeStyle=orthogonalEdgeStyle;rounded=0;orthogonalLoop=1;jettySize=auto;html=1;entryX=1;entryY=0.5;entryDx=0;entryDy=0;" parent="1" source="ywe2W4ERjsgmAIUgEcNF-25" target="ywe2W4ERjsgmAIUgEcNF-26" edge="1">
          <mxGeometry relative="1" as="geometry">
            <mxPoint x="290" y="680" as="targetPoint" />
          </mxGeometry>
        </mxCell>
        <mxCell id="ywe2W4ERjsgmAIUgEcNF-25" value="通知工厂" style="rounded=0;whiteSpace=wrap;html=1;" parent="1" vertex="1">
          <mxGeometry x="345" y="640" width="90" height="40" as="geometry" />
        </mxCell>
        <mxCell id="ywe2W4ERjsgmAIUgEcNF-54" value="" style="edgeStyle=orthogonalEdgeStyle;rounded=0;orthogonalLoop=1;jettySize=auto;html=1;entryX=0.5;entryY=0;entryDx=0;entryDy=0;" parent="1" source="ywe2W4ERjsgmAIUgEcNF-26" target="ywe2W4ERjsgmAIUgEcNF-27" edge="1">
          <mxGeometry relative="1" as="geometry" />
        </mxCell>
        <mxCell id="ywe2W4ERjsgmAIUgEcNF-26" value="接受报关资料&lt;br&gt;审核通过通知" style="rounded=0;whiteSpace=wrap;html=1;" parent="1" vertex="1">
          <mxGeometry x="190" y="660" width="90" height="40" as="geometry" />
        </mxCell>
        <mxCell id="ywe2W4ERjsgmAIUgEcNF-55" style="edgeStyle=orthogonalEdgeStyle;rounded=0;orthogonalLoop=1;jettySize=auto;html=1;entryX=0.5;entryY=0;entryDx=0;entryDy=0;" parent="1" source="ywe2W4ERjsgmAIUgEcNF-27" target="ywe2W4ERjsgmAIUgEcNF-28" edge="1">
          <mxGeometry relative="1" as="geometry" />
        </mxCell>
        <mxCell id="ywe2W4ERjsgmAIUgEcNF-27" value="预约送货" style="rounded=0;whiteSpace=wrap;html=1;" parent="1" vertex="1">
          <mxGeometry x="190" y="730" width="90" height="40" as="geometry" />
        </mxCell>
        <mxCell id="aBH-4CXBsxQ8PNIViAPS-5" style="edgeStyle=orthogonalEdgeStyle;rounded=0;orthogonalLoop=1;jettySize=auto;html=1;entryX=0;entryY=0.5;entryDx=0;entryDy=0;fontSize=14;" parent="1" source="ywe2W4ERjsgmAIUgEcNF-28" target="aBH-4CXBsxQ8PNIViAPS-4" edge="1">
          <mxGeometry relative="1" as="geometry" />
        </mxCell>
        <mxCell id="0HM_U3vJ8pdBlkIfY50M-1" value="短信通知" style="edgeLabel;html=1;align=center;verticalAlign=middle;resizable=0;points=[];fontSize=14;" parent="aBH-4CXBsxQ8PNIViAPS-5" vertex="1" connectable="0">
          <mxGeometry x="-0.1571" y="-1" relative="1" as="geometry">
            <mxPoint as="offset" />
          </mxGeometry>
        </mxCell>
        <mxCell id="jSEOl5Vw7PEmhEx-DatE-2" style="edgeStyle=orthogonalEdgeStyle;rounded=0;orthogonalLoop=1;jettySize=auto;html=1;entryX=0;entryY=0.5;entryDx=0;entryDy=0;" parent="1" source="ywe2W4ERjsgmAIUgEcNF-28" target="w95PZdRx4VGNRm0yklTu-1" edge="1">
          <mxGeometry relative="1" as="geometry">
            <Array as="points">
              <mxPoint x="235" y="870" />
            </Array>
          </mxGeometry>
        </mxCell>
        <mxCell id="ywe2W4ERjsgmAIUgEcNF-28" value="派车" style="rounded=0;whiteSpace=wrap;html=1;" parent="1" vertex="1">
          <mxGeometry x="190" y="800" width="90" height="40" as="geometry" />
        </mxCell>
        <mxCell id="ywe2W4ERjsgmAIUgEcNF-57" style="edgeStyle=orthogonalEdgeStyle;rounded=0;orthogonalLoop=1;jettySize=auto;html=1;entryX=0.5;entryY=0;entryDx=0;entryDy=0;" parent="1" source="ywe2W4ERjsgmAIUgEcNF-29" target="ywe2W4ERjsgmAIUgEcNF-32" edge="1">
          <mxGeometry relative="1" as="geometry" />
        </mxCell>
        <mxCell id="ywe2W4ERjsgmAIUgEcNF-29" value="导出/打印进仓单" style="rounded=0;whiteSpace=wrap;html=1;" parent="1" vertex="1">
          <mxGeometry x="190" y="880" width="90" height="40" as="geometry" />
        </mxCell>
        <mxCell id="ywe2W4ERjsgmAIUgEcNF-31" value="仓库" style="text;html=1;strokeColor=none;fillColor=none;align=center;verticalAlign=middle;whiteSpace=wrap;rounded=0;fontSize=14;fontStyle=1" parent="1" vertex="1">
          <mxGeometry x="450" y="30" width="100" height="20" as="geometry" />
        </mxCell>
        <mxCell id="ywe2W4ERjsgmAIUgEcNF-58" style="edgeStyle=orthogonalEdgeStyle;rounded=0;orthogonalLoop=1;jettySize=auto;html=1;entryX=0;entryY=0.5;entryDx=0;entryDy=0;" parent="1" source="ywe2W4ERjsgmAIUgEcNF-32" target="ywe2W4ERjsgmAIUgEcNF-33" edge="1">
          <mxGeometry relative="1" as="geometry" />
        </mxCell>
        <mxCell id="ywe2W4ERjsgmAIUgEcNF-32" value="安排送货" style="rounded=0;whiteSpace=wrap;html=1;dashed=1;" parent="1" vertex="1">
          <mxGeometry x="190" y="940" width="90" height="40" as="geometry" />
        </mxCell>
        <mxCell id="ywe2W4ERjsgmAIUgEcNF-59" value="" style="edgeStyle=orthogonalEdgeStyle;rounded=0;orthogonalLoop=1;jettySize=auto;html=1;entryX=0.5;entryY=0;entryDx=0;entryDy=0;" parent="1" source="ywe2W4ERjsgmAIUgEcNF-33" target="ywe2W4ERjsgmAIUgEcNF-35" edge="1">
          <mxGeometry relative="1" as="geometry" />
        </mxCell>
        <mxCell id="ywe2W4ERjsgmAIUgEcNF-33" value="接受送货" style="rounded=0;whiteSpace=wrap;html=1;dashed=1;" parent="1" vertex="1">
          <mxGeometry x="440" y="940" width="90" height="40" as="geometry" />
        </mxCell>
        <mxCell id="ywe2W4ERjsgmAIUgEcNF-35" value="确认收货" style="rounded=0;whiteSpace=wrap;html=1;" parent="1" vertex="1">
          <mxGeometry x="440" y="1010" width="90" height="40" as="geometry" />
        </mxCell>
        <mxCell id="KTrfuTUIH0DIWkwMkSl8-4" value="根据4个固定格式模版生成，自动填写系统已输入过的信息" style="text;html=1;strokeColor=none;fillColor=none;align=center;verticalAlign=middle;whiteSpace=wrap;rounded=0;" parent="1" vertex="1">
          <mxGeometry x="290" y="330" width="150" height="20" as="geometry" />
        </mxCell>
        <mxCell id="AjBignHwhJ9VBvzr88LJ-1" value="支持订单的拆分，合并" style="text;html=1;strokeColor=none;fillColor=none;align=center;verticalAlign=middle;whiteSpace=wrap;rounded=0;" parent="1" vertex="1">
          <mxGeometry x="305" y="740" width="135" height="20" as="geometry" />
        </mxCell>
        <mxCell id="aBH-4CXBsxQ8PNIViAPS-1" value="司机" style="text;html=1;strokeColor=none;fillColor=none;align=center;verticalAlign=middle;whiteSpace=wrap;rounded=0;fontSize=14;fontStyle=1" parent="1" vertex="1">
          <mxGeometry x="560" y="30" width="100" height="20" as="geometry" />
        </mxCell>
        <mxCell id="aBH-4CXBsxQ8PNIViAPS-4" value="接收派车&lt;br&gt;通知" style="rounded=0;whiteSpace=wrap;html=1;dashed=1;" parent="1" vertex="1">
          <mxGeometry x="560" y="800" width="90" height="40" as="geometry" />
        </mxCell>
        <mxCell id="0HM_U3vJ8pdBlkIfY50M-2" value="虚线框&amp;nbsp; 代表线下操作， 不是系统需具有的功能" style="text;html=1;align=center;verticalAlign=middle;resizable=0;points=[];autosize=1;strokeColor=none;fontSize=14;" parent="1" vertex="1">
          <mxGeometry x="35" y="1060" width="310" height="20" as="geometry" />
        </mxCell>
        <mxCell id="jSEOl5Vw7PEmhEx-DatE-3" style="edgeStyle=orthogonalEdgeStyle;rounded=0;orthogonalLoop=1;jettySize=auto;html=1;entryX=1;entryY=0.75;entryDx=0;entryDy=0;" parent="1" source="w95PZdRx4VGNRm0yklTu-1" target="ywe2W4ERjsgmAIUgEcNF-29" edge="1">
          <mxGeometry relative="1" as="geometry">
            <Array as="points">
              <mxPoint x="485" y="910" />
            </Array>
          </mxGeometry>
        </mxCell>
        <mxCell id="w95PZdRx4VGNRm0yklTu-1" value="审核" style="rounded=0;whiteSpace=wrap;html=1;" parent="1" vertex="1">
          <mxGeometry x="440" y="850" width="90" height="40" as="geometry" />
        </mxCell>
        <mxCell id="AOkjYl5HRvv-X5oUTe_U-3" value="" style="edgeStyle=orthogonalEdgeStyle;rounded=0;orthogonalLoop=1;jettySize=auto;html=1;" parent="1" source="AOkjYl5HRvv-X5oUTe_U-1" edge="1">
          <mxGeometry relative="1" as="geometry">
            <mxPoint x="235" y="320" as="targetPoint" />
          </mxGeometry>
        </mxCell>
        <mxCell id="AOkjYl5HRvv-X5oUTe_U-1" value="新建报关资料" style="rounded=0;whiteSpace=wrap;html=1;" parent="1" vertex="1">
          <mxGeometry x="190" y="260" width="90" height="40" as="geometry" />
        </mxCell>
        <mxCell id="jSEOl5Vw7PEmhEx-DatE-1" value="填写其他报关信息" style="text;html=1;strokeColor=none;fillColor=none;align=center;verticalAlign=middle;whiteSpace=wrap;rounded=0;" parent="1" vertex="1">
          <mxGeometry x="290" y="400" width="150" height="20" as="geometry" />
        </mxCell>
        <mxCell id="jQi_kWSMdtmCzvQReYv--1" value="通知工厂" style="rounded=0;whiteSpace=wrap;html=1;" parent="1" vertex="1">
          <mxGeometry x="35" y="280" width="90" height="40" as="geometry" />
        </mxCell>
        <mxCell id="jQi_kWSMdtmCzvQReYv--3" value="主要为订单明细信息" style="text;html=1;strokeColor=none;fillColor=none;align=center;verticalAlign=middle;whiteSpace=wrap;rounded=0;" parent="1" vertex="1">
          <mxGeometry x="300" y="210" width="150" height="20" as="geometry" />
        </mxCell>
      </root>
    </mxGraphModel>
  </diagram>
  <diagram id="j0jk890tXHY0PpcCtY2N" name="系统上下文">
    <mxGraphModel dx="946" dy="614" grid="1" gridSize="10" guides="1" tooltips="1" connect="1" arrows="1" fold="1" page="1" pageScale="1" pageWidth="827" pageHeight="1169" math="0" shadow="0">
      <root>
        <mxCell id="GLUvTiBQzX47aJW1uTeo-0" />
        <mxCell id="GLUvTiBQzX47aJW1uTeo-1" parent="GLUvTiBQzX47aJW1uTeo-0" />
        <mxCell id="_JE2uhXKbqOFR6C2QaG3-8" value="" style="edgeStyle=orthogonalEdgeStyle;rounded=0;orthogonalLoop=1;jettySize=auto;html=1;" parent="GLUvTiBQzX47aJW1uTeo-1" source="_JE2uhXKbqOFR6C2QaG3-0" target="_JE2uhXKbqOFR6C2QaG3-3" edge="1">
          <mxGeometry relative="1" as="geometry">
            <Array as="points">
              <mxPoint x="410" y="280" />
              <mxPoint x="410" y="150" />
            </Array>
          </mxGeometry>
        </mxCell>
        <mxCell id="Z6kRSgf-jV7Q28qiHfV8-5" value="API" style="edgeLabel;html=1;align=center;verticalAlign=middle;resizable=0;points=[];" parent="_JE2uhXKbqOFR6C2QaG3-8" vertex="1" connectable="0">
          <mxGeometry x="0.075" y="-1" relative="1" as="geometry">
            <mxPoint x="3" y="50" as="offset" />
          </mxGeometry>
        </mxCell>
        <mxCell id="19HFlSQ3MYy_WaXZNGUL-3" style="edgeStyle=orthogonalEdgeStyle;rounded=0;orthogonalLoop=1;jettySize=auto;html=1;entryX=-0.042;entryY=0.65;entryDx=0;entryDy=0;entryPerimeter=0;" parent="GLUvTiBQzX47aJW1uTeo-1" source="_JE2uhXKbqOFR6C2QaG3-0" target="9RaaonI7zvSOU2Rofxib-0" edge="1">
          <mxGeometry relative="1" as="geometry" />
        </mxCell>
        <mxCell id="19HFlSQ3MYy_WaXZNGUL-6" value="Excel" style="edgeLabel;html=1;align=center;verticalAlign=middle;resizable=0;points=[];" parent="19HFlSQ3MYy_WaXZNGUL-3" vertex="1" connectable="0">
          <mxGeometry x="0.0591" relative="1" as="geometry">
            <mxPoint x="20" y="1" as="offset" />
          </mxGeometry>
        </mxCell>
        <mxCell id="19HFlSQ3MYy_WaXZNGUL-4" style="edgeStyle=orthogonalEdgeStyle;rounded=0;orthogonalLoop=1;jettySize=auto;html=1;entryX=0;entryY=0.5;entryDx=0;entryDy=0;" parent="GLUvTiBQzX47aJW1uTeo-1" source="_JE2uhXKbqOFR6C2QaG3-0" target="19HFlSQ3MYy_WaXZNGUL-0" edge="1">
          <mxGeometry relative="1" as="geometry">
            <Array as="points">
              <mxPoint x="410" y="280" />
              <mxPoint x="410" y="400" />
            </Array>
          </mxGeometry>
        </mxCell>
        <mxCell id="19HFlSQ3MYy_WaXZNGUL-7" value="Excel" style="edgeLabel;html=1;align=center;verticalAlign=middle;resizable=0;points=[];" parent="19HFlSQ3MYy_WaXZNGUL-4" vertex="1" connectable="0">
          <mxGeometry x="0.1" y="2" relative="1" as="geometry">
            <mxPoint x="2" y="-22" as="offset" />
          </mxGeometry>
        </mxCell>
        <mxCell id="_JE2uhXKbqOFR6C2QaG3-0" value="英荣物流&lt;br style=&quot;font-size: 16px;&quot;&gt;进区预约系统" style="rounded=0;whiteSpace=wrap;html=1;fontStyle=1;horizontal=1;fontSize=16;" parent="GLUvTiBQzX47aJW1uTeo-1" vertex="1">
          <mxGeometry x="180" y="218.5" width="180" height="123" as="geometry" />
        </mxCell>
        <mxCell id="_JE2uhXKbqOFR6C2QaG3-3" value="短信接口" style="rounded=0;whiteSpace=wrap;html=1;" parent="GLUvTiBQzX47aJW1uTeo-1" vertex="1">
          <mxGeometry x="480" y="120" width="120" height="60" as="geometry" />
        </mxCell>
        <mxCell id="Z6kRSgf-jV7Q28qiHfV8-1" style="edgeStyle=orthogonalEdgeStyle;rounded=0;orthogonalLoop=1;jettySize=auto;html=1;" parent="GLUvTiBQzX47aJW1uTeo-1" source="Z6kRSgf-jV7Q28qiHfV8-0" target="_JE2uhXKbqOFR6C2QaG3-0" edge="1">
          <mxGeometry relative="1" as="geometry" />
        </mxCell>
        <mxCell id="Z6kRSgf-jV7Q28qiHfV8-3" value="Excel" style="edgeLabel;html=1;align=center;verticalAlign=middle;resizable=0;points=[];" parent="Z6kRSgf-jV7Q28qiHfV8-1" vertex="1" connectable="0">
          <mxGeometry x="-0.1455" y="-4" relative="1" as="geometry">
            <mxPoint y="-4" as="offset" />
          </mxGeometry>
        </mxCell>
        <mxCell id="Z6kRSgf-jV7Q28qiHfV8-0" value="GIFI系统" style="rounded=0;whiteSpace=wrap;html=1;" parent="GLUvTiBQzX47aJW1uTeo-1" vertex="1">
          <mxGeometry y="250" width="120" height="60" as="geometry" />
        </mxCell>
        <mxCell id="9RaaonI7zvSOU2Rofxib-0" value="WMS" style="rounded=0;whiteSpace=wrap;html=1;" parent="GLUvTiBQzX47aJW1uTeo-1" vertex="1">
          <mxGeometry x="480" y="240" width="120" height="60" as="geometry" />
        </mxCell>
        <mxCell id="19HFlSQ3MYy_WaXZNGUL-0" value="关务系统" style="rounded=0;whiteSpace=wrap;html=1;" parent="GLUvTiBQzX47aJW1uTeo-1" vertex="1">
          <mxGeometry x="480" y="370" width="120" height="60" as="geometry" />
        </mxCell>
      </root>
    </mxGraphModel>
  </diagram>
  <diagram id="_Ku7UV8j8634HL0u4ZJ9" name="订单报关状态图-简化">
    <mxGraphModel dx="946" dy="614" grid="1" gridSize="10" guides="1" tooltips="1" connect="1" arrows="1" fold="1" page="1" pageScale="1" pageWidth="827" pageHeight="1169" math="0" shadow="0">
      <root>
        <mxCell id="ICorGSCDI_sK7Jl8in8o-0" />
        <mxCell id="ICorGSCDI_sK7Jl8in8o-1" parent="ICorGSCDI_sK7Jl8in8o-0" />
        <mxCell id="ICorGSCDI_sK7Jl8in8o-46" value="" style="ellipse;fillColor=#000000;strokeColor=none;dashed=1;fontSize=14;" parent="ICorGSCDI_sK7Jl8in8o-1" vertex="1">
          <mxGeometry x="10" y="195" width="30" height="30" as="geometry" />
        </mxCell>
        <mxCell id="ICorGSCDI_sK7Jl8in8o-47" value="" style="edgeStyle=orthogonalEdgeStyle;rounded=0;orthogonalLoop=1;jettySize=auto;html=1;fontSize=14;exitX=1;exitY=0.5;exitDx=0;exitDy=0;" parent="ICorGSCDI_sK7Jl8in8o-1" source="ICorGSCDI_sK7Jl8in8o-46" target="ICorGSCDI_sK7Jl8in8o-52" edge="1">
          <mxGeometry relative="1" as="geometry">
            <Array as="points">
              <mxPoint x="40" y="215" />
            </Array>
            <mxPoint x="190" y="215" as="sourcePoint" />
          </mxGeometry>
        </mxCell>
        <mxCell id="ICorGSCDI_sK7Jl8in8o-48" value="订单导入，完善订单明细数据&lt;br&gt;并提交" style="edgeLabel;html=1;align=center;verticalAlign=middle;resizable=0;points=[];fontSize=14;" parent="ICorGSCDI_sK7Jl8in8o-47" vertex="1" connectable="0">
          <mxGeometry x="-0.2432" y="-1" relative="1" as="geometry">
            <mxPoint x="18" y="-6" as="offset" />
          </mxGeometry>
        </mxCell>
        <mxCell id="ICorGSCDI_sK7Jl8in8o-50" value="" style="edgeStyle=orthogonalEdgeStyle;rounded=0;orthogonalLoop=1;jettySize=auto;html=1;fontSize=14;entryX=0;entryY=0.5;entryDx=0;entryDy=0;exitX=0.5;exitY=1;exitDx=0;exitDy=0;" parent="ICorGSCDI_sK7Jl8in8o-1" source="ICorGSCDI_sK7Jl8in8o-52" target="ICorGSCDI_sK7Jl8in8o-66" edge="1">
          <mxGeometry relative="1" as="geometry">
            <mxPoint x="390" y="295" as="sourcePoint" />
            <Array as="points">
              <mxPoint x="393" y="255" />
              <mxPoint x="250" y="255" />
              <mxPoint x="250" y="320" />
            </Array>
            <mxPoint x="310" y="325" as="targetPoint" />
          </mxGeometry>
        </mxCell>
        <mxCell id="ICorGSCDI_sK7Jl8in8o-51" value="新建，提交报关资料" style="edgeLabel;html=1;align=center;verticalAlign=middle;resizable=0;points=[];fontSize=14;" parent="ICorGSCDI_sK7Jl8in8o-50" vertex="1" connectable="0">
          <mxGeometry x="-0.025" y="4" relative="1" as="geometry">
            <mxPoint y="25" as="offset" />
          </mxGeometry>
        </mxCell>
        <mxCell id="ICorGSCDI_sK7Jl8in8o-52" value="待报关" style="html=1;align=center;verticalAlign=top;rounded=1;absoluteArcSize=1;arcSize=10;dashed=1;fontSize=14;" parent="ICorGSCDI_sK7Jl8in8o-1" vertex="1">
          <mxGeometry x="350" y="195" width="86" height="40" as="geometry" />
        </mxCell>
        <mxCell id="ICorGSCDI_sK7Jl8in8o-57" value="&lt;span style=&quot;font-weight: 700&quot;&gt;优力&lt;/span&gt;" style="shape=umlLifeline;perimeter=lifelinePerimeter;whiteSpace=wrap;html=1;container=1;collapsible=0;recursiveResize=0;outlineConnect=0;dashed=1;fontSize=14;" parent="ICorGSCDI_sK7Jl8in8o-1" vertex="1">
          <mxGeometry x="40" y="65" width="100" height="70" as="geometry" />
        </mxCell>
        <mxCell id="ICorGSCDI_sK7Jl8in8o-58" value="" style="shape=partialRectangle;whiteSpace=wrap;html=1;bottom=0;fillColor=none;point=[];connectable=0;" parent="ICorGSCDI_sK7Jl8in8o-57" vertex="1">
          <mxGeometry x="30" y="70" width="40" height="20" as="geometry" />
        </mxCell>
        <mxCell id="ICorGSCDI_sK7Jl8in8o-59" value="&lt;span style=&quot;font-weight: 700&quot;&gt;供应商&lt;/span&gt;" style="shape=umlLifeline;perimeter=lifelinePerimeter;whiteSpace=wrap;html=1;container=1;collapsible=0;recursiveResize=0;outlineConnect=0;dashed=1;fontSize=14;" parent="ICorGSCDI_sK7Jl8in8o-1" vertex="1">
          <mxGeometry x="204" y="65" width="100" height="90" as="geometry" />
        </mxCell>
        <mxCell id="ICorGSCDI_sK7Jl8in8o-60" value="" style="shape=partialRectangle;whiteSpace=wrap;html=1;bottom=0;fillColor=none;point=[];connectable=0;" parent="ICorGSCDI_sK7Jl8in8o-59" vertex="1">
          <mxGeometry x="20" y="70" width="70" height="20" as="geometry" />
        </mxCell>
        <mxCell id="ICorGSCDI_sK7Jl8in8o-61" value="&lt;span style=&quot;font-weight: 700&quot;&gt;关务员&lt;/span&gt;" style="shape=umlLifeline;perimeter=lifelinePerimeter;whiteSpace=wrap;html=1;container=1;collapsible=0;recursiveResize=0;outlineConnect=0;dashed=1;fontSize=14;" parent="ICorGSCDI_sK7Jl8in8o-1" vertex="1">
          <mxGeometry x="477" y="60" width="135" height="100" as="geometry" />
        </mxCell>
        <mxCell id="ICorGSCDI_sK7Jl8in8o-62" value="" style="shape=partialRectangle;whiteSpace=wrap;html=1;bottom=0;fillColor=none;point=[];connectable=0;" parent="ICorGSCDI_sK7Jl8in8o-61" vertex="1">
          <mxGeometry x="10" y="80" width="120" height="20" as="geometry" />
        </mxCell>
        <mxCell id="ICorGSCDI_sK7Jl8in8o-63" value="&lt;span style=&quot;color: rgb(0 , 0 , 0) ; font-family: &amp;#34;helvetica&amp;#34; ; font-size: 14px ; font-style: normal ; font-weight: 400 ; letter-spacing: normal ; text-align: center ; text-indent: 0px ; text-transform: none ; word-spacing: 0px ; background-color: rgb(255 , 255 , 255) ; display: inline ; float: none&quot;&gt;报关状态：待报关，报关&lt;/span&gt;&lt;span style=&quot;font-family: &amp;#34;helvetica&amp;#34; ; font-size: 14px ; text-align: center ; background-color: rgb(255 , 255 , 255)&quot;&gt;中，报关完成&lt;/span&gt;" style="text;whiteSpace=wrap;html=1;" parent="ICorGSCDI_sK7Jl8in8o-1" vertex="1">
          <mxGeometry x="10" y="10" width="780" height="30" as="geometry" />
        </mxCell>
        <mxCell id="EqyfUIz4V2rMafP_FOkH-3" style="edgeStyle=orthogonalEdgeStyle;rounded=0;orthogonalLoop=1;jettySize=auto;html=1;entryX=0.5;entryY=0;entryDx=0;entryDy=0;" parent="ICorGSCDI_sK7Jl8in8o-1" source="ICorGSCDI_sK7Jl8in8o-66" target="EIJdTmMfKgacGxGiQeOc-0" edge="1">
          <mxGeometry relative="1" as="geometry" />
        </mxCell>
        <mxCell id="EqyfUIz4V2rMafP_FOkH-4" value="审核报关资料" style="edgeLabel;html=1;align=center;verticalAlign=middle;resizable=0;points=[];" parent="EqyfUIz4V2rMafP_FOkH-3" vertex="1" connectable="0">
          <mxGeometry x="-0.2529" y="-1" relative="1" as="geometry">
            <mxPoint as="offset" />
          </mxGeometry>
        </mxCell>
        <mxCell id="ICorGSCDI_sK7Jl8in8o-66" value="报关中" style="html=1;align=center;verticalAlign=top;rounded=1;absoluteArcSize=1;arcSize=10;dashed=1;fontSize=14;" parent="ICorGSCDI_sK7Jl8in8o-1" vertex="1">
          <mxGeometry x="356" y="305" width="80" height="30" as="geometry" />
        </mxCell>
        <mxCell id="EqyfUIz4V2rMafP_FOkH-9" style="edgeStyle=orthogonalEdgeStyle;rounded=0;orthogonalLoop=1;jettySize=auto;html=1;entryX=0.5;entryY=0;entryDx=0;entryDy=0;" parent="ICorGSCDI_sK7Jl8in8o-1" source="ICorGSCDI_sK7Jl8in8o-72" target="ICorGSCDI_sK7Jl8in8o-87" edge="1">
          <mxGeometry relative="1" as="geometry" />
        </mxCell>
        <mxCell id="ICorGSCDI_sK7Jl8in8o-72" value="报关完成" style="html=1;align=center;verticalAlign=top;rounded=1;absoluteArcSize=1;arcSize=10;dashed=1;fontSize=14;" parent="ICorGSCDI_sK7Jl8in8o-1" vertex="1">
          <mxGeometry x="356" y="530" width="80" height="30" as="geometry" />
        </mxCell>
        <mxCell id="ICorGSCDI_sK7Jl8in8o-87" value="" style="ellipse;html=1;shape=endState;fillColor=#000000;strokeColor=#000000;align=left;" parent="ICorGSCDI_sK7Jl8in8o-1" vertex="1">
          <mxGeometry x="381" y="610" width="30" height="30" as="geometry" />
        </mxCell>
        <mxCell id="EqyfUIz4V2rMafP_FOkH-5" style="edgeStyle=orthogonalEdgeStyle;rounded=0;orthogonalLoop=1;jettySize=auto;html=1;entryX=1;entryY=0.5;entryDx=0;entryDy=0;" parent="ICorGSCDI_sK7Jl8in8o-1" source="ICorGSCDI_sK7Jl8in8o-78" target="ICorGSCDI_sK7Jl8in8o-72" edge="1">
          <mxGeometry relative="1" as="geometry">
            <Array as="points">
              <mxPoint x="595" y="545" />
            </Array>
          </mxGeometry>
        </mxCell>
        <mxCell id="EqyfUIz4V2rMafP_FOkH-6" value="是" style="edgeLabel;html=1;align=center;verticalAlign=middle;resizable=0;points=[];" parent="EqyfUIz4V2rMafP_FOkH-5" vertex="1" connectable="0">
          <mxGeometry x="0.2109" y="3" relative="1" as="geometry">
            <mxPoint as="offset" />
          </mxGeometry>
        </mxCell>
        <mxCell id="ICorGSCDI_sK7Jl8in8o-78" value="是否全部订单明细报关完成" style="rhombus;whiteSpace=wrap;html=1;dashed=1;fontSize=14;" parent="ICorGSCDI_sK7Jl8in8o-1" vertex="1">
          <mxGeometry x="540" y="460" width="110" height="80" as="geometry" />
        </mxCell>
        <mxCell id="EIJdTmMfKgacGxGiQeOc-0" value="审核是否&lt;br&gt;通过" style="rhombus;whiteSpace=wrap;html=1;dashed=1;fontSize=14;" parent="ICorGSCDI_sK7Jl8in8o-1" vertex="1">
          <mxGeometry x="540" y="340" width="110" height="80" as="geometry" />
        </mxCell>
        <mxCell id="EIJdTmMfKgacGxGiQeOc-2" value="是" style="endArrow=classic;html=1;entryX=0.5;entryY=0;entryDx=0;entryDy=0;" parent="ICorGSCDI_sK7Jl8in8o-1" source="EIJdTmMfKgacGxGiQeOc-0" target="ICorGSCDI_sK7Jl8in8o-78" edge="1">
          <mxGeometry width="50" height="50" relative="1" as="geometry">
            <mxPoint x="420" y="410" as="sourcePoint" />
            <mxPoint x="470" y="360" as="targetPoint" />
          </mxGeometry>
        </mxCell>
      </root>
    </mxGraphModel>
  </diagram>
  <diagram id="WBIahR8-ODn9EsiNLG-y" name="订单送货状态图-简单">
    <mxGraphModel dx="946" dy="614" grid="1" gridSize="10" guides="1" tooltips="1" connect="1" arrows="1" fold="1" page="1" pageScale="1" pageWidth="827" pageHeight="1169" math="0" shadow="0">
      <root>
        <mxCell id="S9yzOXGg-rlqR6XcXJCb-0" />
        <mxCell id="S9yzOXGg-rlqR6XcXJCb-1" parent="S9yzOXGg-rlqR6XcXJCb-0" />
        <mxCell id="neWM1iYsgEN77BEes6dp-4" style="edgeStyle=orthogonalEdgeStyle;rounded=0;orthogonalLoop=1;jettySize=auto;html=1;" parent="S9yzOXGg-rlqR6XcXJCb-1" source="806Hso6sv2vMAGEjJEbE-5" target="feWoxox8X-YrkGSu4pPN-0" edge="1">
          <mxGeometry relative="1" as="geometry" />
        </mxCell>
        <mxCell id="806Hso6sv2vMAGEjJEbE-5" value="送货中" style="html=1;align=center;verticalAlign=top;rounded=1;absoluteArcSize=1;arcSize=10;dashed=1;fontSize=14;" parent="S9yzOXGg-rlqR6XcXJCb-1" vertex="1">
          <mxGeometry x="316" y="175" width="100" height="30" as="geometry" />
        </mxCell>
        <mxCell id="806Hso6sv2vMAGEjJEbE-6" value="" style="edgeStyle=orthogonalEdgeStyle;rounded=0;orthogonalLoop=1;jettySize=auto;html=1;fontSize=14;" parent="S9yzOXGg-rlqR6XcXJCb-1" source="806Hso6sv2vMAGEjJEbE-7" target="806Hso6sv2vMAGEjJEbE-12" edge="1">
          <mxGeometry relative="1" as="geometry" />
        </mxCell>
        <mxCell id="806Hso6sv2vMAGEjJEbE-7" value="送货完成" style="html=1;align=center;verticalAlign=top;rounded=1;absoluteArcSize=1;arcSize=10;dashed=1;fontSize=14;" parent="S9yzOXGg-rlqR6XcXJCb-1" vertex="1">
          <mxGeometry x="320" y="365" width="96" height="40" as="geometry" />
        </mxCell>
        <mxCell id="806Hso6sv2vMAGEjJEbE-12" value="" style="ellipse;html=1;shape=endState;fillColor=#000000;strokeColor=#000000;dashed=1;fontSize=14;" parent="S9yzOXGg-rlqR6XcXJCb-1" vertex="1">
          <mxGeometry x="353" y="455" width="30" height="30" as="geometry" />
        </mxCell>
        <mxCell id="806Hso6sv2vMAGEjJEbE-13" value="&lt;span style=&quot;color: rgb(0 , 0 , 0) ; font-family: &amp;#34;helvetica&amp;#34; ; font-size: 14px ; font-style: normal ; font-weight: 400 ; letter-spacing: normal ; text-align: center ; text-indent: 0px ; text-transform: none ; word-spacing: 0px ; background-color: rgb(255 , 255 , 255) ; display: inline ; float: none&quot;&gt;送货状态：待送货，送货中，&lt;/span&gt;&lt;span style=&quot;font-family: &amp;#34;helvetica&amp;#34; ; font-size: 14px ; text-align: center ; background-color: rgb(255 , 255 , 255)&quot;&gt;送货完成&lt;/span&gt;" style="text;whiteSpace=wrap;html=1;" parent="S9yzOXGg-rlqR6XcXJCb-1" vertex="1">
          <mxGeometry x="10" width="770" height="60" as="geometry" />
        </mxCell>
        <mxCell id="806Hso6sv2vMAGEjJEbE-14" style="edgeStyle=orthogonalEdgeStyle;rounded=0;orthogonalLoop=1;jettySize=auto;html=1;entryX=0;entryY=0.5;entryDx=0;entryDy=0;" parent="S9yzOXGg-rlqR6XcXJCb-1" source="806Hso6sv2vMAGEjJEbE-16" target="806Hso6sv2vMAGEjJEbE-19" edge="1">
          <mxGeometry relative="1" as="geometry">
            <mxPoint x="80" y="190" as="targetPoint" />
          </mxGeometry>
        </mxCell>
        <mxCell id="806Hso6sv2vMAGEjJEbE-15" value="导入订单" style="edgeLabel;html=1;align=center;verticalAlign=middle;resizable=0;points=[];" parent="806Hso6sv2vMAGEjJEbE-14" vertex="1" connectable="0">
          <mxGeometry x="-0.375" y="-1" relative="1" as="geometry">
            <mxPoint as="offset" />
          </mxGeometry>
        </mxCell>
        <mxCell id="806Hso6sv2vMAGEjJEbE-16" value="" style="ellipse;fillColor=#000000;strokeColor=none;dashed=1;fontSize=14;" parent="S9yzOXGg-rlqR6XcXJCb-1" vertex="1">
          <mxGeometry y="175" width="30" height="30" as="geometry" />
        </mxCell>
        <mxCell id="806Hso6sv2vMAGEjJEbE-17" style="edgeStyle=orthogonalEdgeStyle;rounded=0;orthogonalLoop=1;jettySize=auto;html=1;entryX=0;entryY=0.5;entryDx=0;entryDy=0;" parent="S9yzOXGg-rlqR6XcXJCb-1" source="806Hso6sv2vMAGEjJEbE-19" target="806Hso6sv2vMAGEjJEbE-5" edge="1">
          <mxGeometry relative="1" as="geometry">
            <mxPoint x="250" y="285" as="targetPoint" />
          </mxGeometry>
        </mxCell>
        <mxCell id="806Hso6sv2vMAGEjJEbE-18" value="新建预约送货" style="edgeLabel;html=1;align=center;verticalAlign=middle;resizable=0;points=[];" parent="806Hso6sv2vMAGEjJEbE-17" vertex="1" connectable="0">
          <mxGeometry x="-0.36" y="-2" relative="1" as="geometry">
            <mxPoint x="16" y="-2" as="offset" />
          </mxGeometry>
        </mxCell>
        <mxCell id="806Hso6sv2vMAGEjJEbE-19" value="待送货" style="html=1;align=center;verticalAlign=top;rounded=1;absoluteArcSize=1;arcSize=10;dashed=1;fontSize=14;" parent="S9yzOXGg-rlqR6XcXJCb-1" vertex="1">
          <mxGeometry x="110" y="175" width="80" height="30" as="geometry" />
        </mxCell>
        <mxCell id="806Hso6sv2vMAGEjJEbE-35" value="&lt;span style=&quot;font-weight: 700&quot;&gt;优力&lt;/span&gt;" style="shape=umlLifeline;perimeter=lifelinePerimeter;whiteSpace=wrap;html=1;container=1;collapsible=0;recursiveResize=0;outlineConnect=0;dashed=1;fontSize=14;" parent="S9yzOXGg-rlqR6XcXJCb-1" vertex="1">
          <mxGeometry x="26" y="50" width="100" height="70" as="geometry" />
        </mxCell>
        <mxCell id="806Hso6sv2vMAGEjJEbE-36" value="" style="shape=partialRectangle;whiteSpace=wrap;html=1;bottom=0;fillColor=none;point=[];connectable=0;" parent="806Hso6sv2vMAGEjJEbE-35" vertex="1">
          <mxGeometry x="30" y="70" width="40" height="20" as="geometry" />
        </mxCell>
        <mxCell id="806Hso6sv2vMAGEjJEbE-37" value="&lt;span style=&quot;font-weight: 700&quot;&gt;供应商&lt;/span&gt;" style="shape=umlLifeline;perimeter=lifelinePerimeter;whiteSpace=wrap;html=1;container=1;collapsible=0;recursiveResize=0;outlineConnect=0;dashed=1;fontSize=14;" parent="S9yzOXGg-rlqR6XcXJCb-1" vertex="1">
          <mxGeometry x="226" y="50" width="100" height="90" as="geometry" />
        </mxCell>
        <mxCell id="806Hso6sv2vMAGEjJEbE-38" value="" style="shape=partialRectangle;whiteSpace=wrap;html=1;bottom=0;fillColor=none;point=[];connectable=0;" parent="806Hso6sv2vMAGEjJEbE-37" vertex="1">
          <mxGeometry x="20" y="70" width="70" height="20" as="geometry" />
        </mxCell>
        <mxCell id="806Hso6sv2vMAGEjJEbE-41" value="&lt;b&gt;仓库&lt;/b&gt;" style="shape=umlLifeline;perimeter=lifelinePerimeter;whiteSpace=wrap;html=1;container=1;collapsible=0;recursiveResize=0;outlineConnect=0;dashed=1;fontSize=14;" parent="S9yzOXGg-rlqR6XcXJCb-1" vertex="1">
          <mxGeometry x="446" y="50" width="100" height="90" as="geometry" />
        </mxCell>
        <mxCell id="806Hso6sv2vMAGEjJEbE-42" value="" style="shape=partialRectangle;whiteSpace=wrap;html=1;bottom=0;fillColor=none;point=[];connectable=0;" parent="806Hso6sv2vMAGEjJEbE-41" vertex="1">
          <mxGeometry x="20" y="70" width="70" height="20" as="geometry" />
        </mxCell>
        <mxCell id="neWM1iYsgEN77BEes6dp-0" style="edgeStyle=orthogonalEdgeStyle;rounded=0;orthogonalLoop=1;jettySize=auto;html=1;entryX=1;entryY=0.5;entryDx=0;entryDy=0;" parent="S9yzOXGg-rlqR6XcXJCb-1" source="feWoxox8X-YrkGSu4pPN-0" target="806Hso6sv2vMAGEjJEbE-7" edge="1">
          <mxGeometry relative="1" as="geometry">
            <Array as="points">
              <mxPoint x="501" y="385" />
            </Array>
          </mxGeometry>
        </mxCell>
        <mxCell id="neWM1iYsgEN77BEes6dp-2" value="是" style="edgeLabel;html=1;align=center;verticalAlign=middle;resizable=0;points=[];" parent="neWM1iYsgEN77BEes6dp-0" vertex="1" connectable="0">
          <mxGeometry x="0.0446" y="-4" relative="1" as="geometry">
            <mxPoint as="offset" />
          </mxGeometry>
        </mxCell>
        <mxCell id="feWoxox8X-YrkGSu4pPN-0" value="是否全部订单明细送货完成" style="rhombus;whiteSpace=wrap;html=1;dashed=1;fontSize=14;" parent="S9yzOXGg-rlqR6XcXJCb-1" vertex="1">
          <mxGeometry x="446" y="285" width="110" height="80" as="geometry" />
        </mxCell>
        <mxCell id="neWM1iYsgEN77BEes6dp-5" value="&lt;meta charset=&quot;utf-8&quot;&gt;&lt;span style=&quot;color: rgb(0, 0, 0); font-family: helvetica; font-size: 14px; font-style: normal; font-weight: 400; letter-spacing: normal; text-align: center; text-indent: 0px; text-transform: none; word-spacing: 0px; background-color: rgb(255, 255, 255); display: inline; float: none;&quot;&gt;确认收货&lt;/span&gt;" style="text;whiteSpace=wrap;html=1;" parent="S9yzOXGg-rlqR6XcXJCb-1" vertex="1">
          <mxGeometry x="461" y="195" width="80" height="30" as="geometry" />
        </mxCell>
      </root>
    </mxGraphModel>
  </diagram>
  <diagram id="oHchW0YiF47yJrdBq1iX" name="订单明细状态">
    <mxGraphModel dx="946" dy="614" grid="1" gridSize="10" guides="1" tooltips="1" connect="1" arrows="1" fold="1" page="1" pageScale="1" pageWidth="827" pageHeight="1169" math="0" shadow="0">
      <root>
        <mxCell id="_ldEek01dWn288goBROa-0" />
        <mxCell id="_ldEek01dWn288goBROa-1" parent="_ldEek01dWn288goBROa-0" />
        <mxCell id="pGa1H9XAjq3S1MZr34kl-1" value="" style="ellipse;fillColor=#000000;strokeColor=none;dashed=1;fontSize=14;" parent="_ldEek01dWn288goBROa-1" vertex="1">
          <mxGeometry x="7" y="205" width="30" height="30" as="geometry" />
        </mxCell>
        <mxCell id="pGa1H9XAjq3S1MZr34kl-2" value="" style="edgeStyle=orthogonalEdgeStyle;rounded=0;orthogonalLoop=1;jettySize=auto;html=1;fontSize=14;exitX=1;exitY=0.5;exitDx=0;exitDy=0;" parent="_ldEek01dWn288goBROa-1" source="pGa1H9XAjq3S1MZr34kl-1" target="pGa1H9XAjq3S1MZr34kl-7" edge="1">
          <mxGeometry relative="1" as="geometry">
            <Array as="points">
              <mxPoint x="37" y="225" />
            </Array>
            <mxPoint x="187" y="225" as="sourcePoint" />
          </mxGeometry>
        </mxCell>
        <mxCell id="pGa1H9XAjq3S1MZr34kl-3" value="导入，完善订单明细数据&lt;br&gt;并" style="edgeLabel;html=1;align=center;verticalAlign=middle;resizable=0;points=[];fontSize=14;" parent="pGa1H9XAjq3S1MZr34kl-2" vertex="1" connectable="0">
          <mxGeometry x="-0.2432" y="-1" relative="1" as="geometry">
            <mxPoint x="18" y="-6" as="offset" />
          </mxGeometry>
        </mxCell>
        <mxCell id="pGa1H9XAjq3S1MZr34kl-5" value="" style="edgeStyle=orthogonalEdgeStyle;rounded=0;orthogonalLoop=1;jettySize=auto;html=1;fontSize=14;exitX=0.5;exitY=1;exitDx=0;exitDy=0;" parent="_ldEek01dWn288goBROa-1" source="pGa1H9XAjq3S1MZr34kl-7" edge="1">
          <mxGeometry relative="1" as="geometry">
            <mxPoint x="387" y="305" as="sourcePoint" />
            <Array as="points">
              <mxPoint x="390" y="265" />
              <mxPoint x="247" y="265" />
              <mxPoint x="247" y="335" />
            </Array>
            <mxPoint x="340" y="335" as="targetPoint" />
          </mxGeometry>
        </mxCell>
        <mxCell id="pGa1H9XAjq3S1MZr34kl-6" value="新建，提交报关资料" style="edgeLabel;html=1;align=center;verticalAlign=middle;resizable=0;points=[];fontSize=14;" parent="pGa1H9XAjq3S1MZr34kl-5" vertex="1" connectable="0">
          <mxGeometry x="-0.025" y="4" relative="1" as="geometry">
            <mxPoint y="21" as="offset" />
          </mxGeometry>
        </mxCell>
        <mxCell id="pGa1H9XAjq3S1MZr34kl-7" value="待报关" style="html=1;align=center;verticalAlign=top;rounded=1;absoluteArcSize=1;arcSize=10;dashed=1;fontSize=14;" parent="_ldEek01dWn288goBROa-1" vertex="1">
          <mxGeometry x="347" y="205" width="86" height="40" as="geometry" />
        </mxCell>
        <mxCell id="pGa1H9XAjq3S1MZr34kl-12" value="&lt;span style=&quot;font-weight: 700&quot;&gt;优力&lt;/span&gt;" style="shape=umlLifeline;perimeter=lifelinePerimeter;whiteSpace=wrap;html=1;container=1;collapsible=0;recursiveResize=0;outlineConnect=0;dashed=1;fontSize=14;" parent="_ldEek01dWn288goBROa-1" vertex="1">
          <mxGeometry x="37" y="75" width="100" height="70" as="geometry" />
        </mxCell>
        <mxCell id="pGa1H9XAjq3S1MZr34kl-13" value="" style="shape=partialRectangle;whiteSpace=wrap;html=1;bottom=0;fillColor=none;point=[];connectable=0;" parent="pGa1H9XAjq3S1MZr34kl-12" vertex="1">
          <mxGeometry x="30" y="70" width="40" height="20" as="geometry" />
        </mxCell>
        <mxCell id="pGa1H9XAjq3S1MZr34kl-14" value="&lt;span style=&quot;font-weight: 700&quot;&gt;供应商&lt;/span&gt;" style="shape=umlLifeline;perimeter=lifelinePerimeter;whiteSpace=wrap;html=1;container=1;collapsible=0;recursiveResize=0;outlineConnect=0;dashed=1;fontSize=14;" parent="_ldEek01dWn288goBROa-1" vertex="1">
          <mxGeometry x="201" y="75" width="100" height="90" as="geometry" />
        </mxCell>
        <mxCell id="pGa1H9XAjq3S1MZr34kl-15" value="" style="shape=partialRectangle;whiteSpace=wrap;html=1;bottom=0;fillColor=none;point=[];connectable=0;" parent="pGa1H9XAjq3S1MZr34kl-14" vertex="1">
          <mxGeometry x="20" y="70" width="70" height="20" as="geometry" />
        </mxCell>
        <mxCell id="pGa1H9XAjq3S1MZr34kl-16" value="&lt;span style=&quot;font-weight: 700&quot;&gt;关务员&lt;/span&gt;" style="shape=umlLifeline;perimeter=lifelinePerimeter;whiteSpace=wrap;html=1;container=1;collapsible=0;recursiveResize=0;outlineConnect=0;dashed=1;fontSize=14;" parent="_ldEek01dWn288goBROa-1" vertex="1">
          <mxGeometry x="440" y="70" width="135" height="100" as="geometry" />
        </mxCell>
        <mxCell id="pGa1H9XAjq3S1MZr34kl-17" value="" style="shape=partialRectangle;whiteSpace=wrap;html=1;bottom=0;fillColor=none;point=[];connectable=0;" parent="pGa1H9XAjq3S1MZr34kl-16" vertex="1">
          <mxGeometry x="10" y="80" width="120" height="20" as="geometry" />
        </mxCell>
        <mxCell id="pGa1H9XAjq3S1MZr34kl-18" value="&lt;span style=&quot;color: rgb(0 , 0 , 0) ; font-family: &amp;#34;helvetica&amp;#34; ; font-size: 14px ; font-style: normal ; font-weight: 400 ; letter-spacing: normal ; text-align: center ; text-indent: 0px ; text-transform: none ; word-spacing: 0px ; background-color: rgb(255 , 255 , 255) ; display: inline ; float: none&quot;&gt;状态：待报关，报关&lt;/span&gt;&lt;span style=&quot;font-family: &amp;#34;helvetica&amp;#34; ; font-size: 14px ; text-align: center ; background-color: rgb(255 , 255 , 255)&quot;&gt;中，报关不通过，&lt;/span&gt;&lt;span style=&quot;font-family: &amp;#34;helvetica&amp;#34; ; font-size: 14px ; text-align: center ; background-color: rgb(255 , 255 , 255)&quot;&gt;报关通过，待送货，送货中，送货完成&lt;br&gt;&lt;br&gt;&lt;/span&gt;&lt;span style=&quot;font-family: &amp;#34;helvetica&amp;#34; ; font-size: 14px ; text-align: center ; background-color: rgb(255 , 255 , 255)&quot;&gt;通过送货的数量来判断部分送货，还是全部送货&lt;/span&gt;&lt;span style=&quot;font-family: &amp;#34;helvetica&amp;#34; ; font-size: 14px ; text-align: center ; background-color: rgb(255 , 255 , 255)&quot;&gt;&lt;br&gt;&lt;br&gt;&lt;/span&gt;&lt;span style=&quot;color: rgba(0 , 0 , 0 , 0) ; font-family: monospace ; font-size: 0px&quot;&gt;%3CmxGraphModel%3E%3Croot%3E%3CmxCell%20id%3D%220%22%2F%3E%3CmxCell%20id%3D%221%22%20parent%3D%220%22%2F%3E%3CmxCell%20id%3D%222%22%20value%3D%22%26lt%3Bspan%20style%3D%26quot%3Bcolor%3A%20rgb(0%20%2C%200%20%2C%200)%20%3B%20font-family%3A%20%26amp%3B%2334%3Bhelvetica%26amp%3B%2334%3B%20%3B%20font-size%3A%2014px%20%3B%20font-style%3A%20normal%20%3B%20font-weight%3A%20400%20%3B%20letter-spacing%3A%20normal%20%3B%20text-align%3A%20center%20%3B%20text-indent%3A%200px%20%3B%20text-transform%3A%20none%20%3B%20word-spacing%3A%200px%20%3B%20background-color%3A%20rgb(255%20%2C%20255%20%2C%20255)%20%3B%20display%3A%20inline%20%3B%20float%3A%20none%26quot%3B%26gt%3B%E9%80%81%E8%B4%A7%E7%8A%B6%E6%80%81%EF%BC%8C%E9%80%9A%E8%BF%87%E9%80%81%E8%B4%A7%E7%9A%84%E6%95%B0%E9%87%8F%E6%9D%A5%E5%88%A4%E6%96%AD%26lt%3B%2Fspan%26gt%3B%22%20style%3D%22text%3BwhiteSpace%3Dwrap%3Bhtml%3D1%3B%22%20vertex%3D%221%22%20parent%3D%221%22%3E%3CmxGeometry%20x%3D%2217%22%20y%3D%221010%22%20width%3D%22260%22%20height%3D%2230%22%20as%3D%22geometry%22%2F%3E%3C%2FmxCell%3E%3C%2Froot%3E%3C%2FmxGraphModel%3E&lt;/span&gt;&lt;span style=&quot;font-family: &amp;#34;helvetica&amp;#34; ; font-size: 14px ; text-align: center ; background-color: rgb(255 , 255 , 255)&quot;&gt;&lt;br&gt;&lt;/span&gt;" style="text;whiteSpace=wrap;html=1;" parent="_ldEek01dWn288goBROa-1" vertex="1">
          <mxGeometry y="10" width="780" height="80" as="geometry" />
        </mxCell>
        <mxCell id="pGa1H9XAjq3S1MZr34kl-19" value="" style="edgeStyle=orthogonalEdgeStyle;rounded=0;orthogonalLoop=1;jettySize=auto;html=1;entryX=0.5;entryY=0;entryDx=0;entryDy=0;" parent="_ldEek01dWn288goBROa-1" source="pGa1H9XAjq3S1MZr34kl-21" target="pGa1H9XAjq3S1MZr34kl-33" edge="1">
          <mxGeometry relative="1" as="geometry">
            <Array as="points">
              <mxPoint x="560" y="335" />
            </Array>
            <mxPoint x="600" y="370" as="targetPoint" />
          </mxGeometry>
        </mxCell>
        <mxCell id="pGa1H9XAjq3S1MZr34kl-20" value="审核报关资料" style="edgeLabel;html=1;align=center;verticalAlign=middle;resizable=0;points=[];" parent="pGa1H9XAjq3S1MZr34kl-19" vertex="1" connectable="0">
          <mxGeometry x="-0.1818" y="3" relative="1" as="geometry">
            <mxPoint x="11" y="3" as="offset" />
          </mxGeometry>
        </mxCell>
        <mxCell id="pGa1H9XAjq3S1MZr34kl-21" value="报关中" style="html=1;align=center;verticalAlign=top;rounded=1;absoluteArcSize=1;arcSize=10;dashed=1;fontSize=14;" parent="_ldEek01dWn288goBROa-1" vertex="1">
          <mxGeometry x="341" y="320" width="80" height="30" as="geometry" />
        </mxCell>
        <mxCell id="FkX6k6BPDUjceksKh2U4-1" value="新建，并提交预约送货" style="edgeStyle=orthogonalEdgeStyle;rounded=0;orthogonalLoop=1;jettySize=auto;html=1;entryX=0;entryY=0.5;entryDx=0;entryDy=0;" parent="_ldEek01dWn288goBROa-1" source="pGa1H9XAjq3S1MZr34kl-27" target="FkX6k6BPDUjceksKh2U4-0" edge="1">
          <mxGeometry relative="1" as="geometry">
            <Array as="points">
              <mxPoint x="250" y="485" />
              <mxPoint x="250" y="555" />
            </Array>
          </mxGeometry>
        </mxCell>
        <mxCell id="pGa1H9XAjq3S1MZr34kl-27" value="报关通过" style="html=1;align=center;verticalAlign=top;rounded=1;absoluteArcSize=1;arcSize=10;dashed=1;fontSize=14;" parent="_ldEek01dWn288goBROa-1" vertex="1">
          <mxGeometry x="341" y="470" width="80" height="30" as="geometry" />
        </mxCell>
        <mxCell id="pGa1H9XAjq3S1MZr34kl-30" value="是" style="edgeStyle=orthogonalEdgeStyle;rounded=0;orthogonalLoop=1;jettySize=auto;html=1;entryX=1;entryY=0.5;entryDx=0;entryDy=0;" parent="_ldEek01dWn288goBROa-1" source="pGa1H9XAjq3S1MZr34kl-33" target="pGa1H9XAjq3S1MZr34kl-27" edge="1">
          <mxGeometry x="-0.4286" relative="1" as="geometry">
            <mxPoint x="530" y="510" as="targetPoint" />
            <Array as="points">
              <mxPoint x="560" y="485" />
            </Array>
            <mxPoint as="offset" />
          </mxGeometry>
        </mxCell>
        <mxCell id="2WBaXO0WdWSvwOT-8Po4-2" value="否" style="edgeStyle=orthogonalEdgeStyle;rounded=0;orthogonalLoop=1;jettySize=auto;html=1;" parent="_ldEek01dWn288goBROa-1" source="pGa1H9XAjq3S1MZr34kl-33" target="pGa1H9XAjq3S1MZr34kl-38" edge="1">
          <mxGeometry relative="1" as="geometry" />
        </mxCell>
        <mxCell id="pGa1H9XAjq3S1MZr34kl-33" value="是否审核&lt;br&gt;通过" style="rhombus;whiteSpace=wrap;html=1;dashed=1;fontSize=14;" parent="_ldEek01dWn288goBROa-1" vertex="1">
          <mxGeometry x="520" y="375" width="80" height="80" as="geometry" />
        </mxCell>
        <mxCell id="pGa1H9XAjq3S1MZr34kl-37" value="修改，并提交报关资料" style="edgeStyle=orthogonalEdgeStyle;rounded=0;orthogonalLoop=1;jettySize=auto;html=1;entryX=0;entryY=0.75;entryDx=0;entryDy=0;" parent="_ldEek01dWn288goBROa-1" source="pGa1H9XAjq3S1MZr34kl-38" target="pGa1H9XAjq3S1MZr34kl-21" edge="1">
          <mxGeometry relative="1" as="geometry">
            <Array as="points">
              <mxPoint x="250" y="415" />
              <mxPoint x="250" y="343" />
            </Array>
          </mxGeometry>
        </mxCell>
        <mxCell id="pGa1H9XAjq3S1MZr34kl-38" value="报关审核不通过" style="html=1;align=center;verticalAlign=top;rounded=1;absoluteArcSize=1;arcSize=10;dashed=1;fontSize=14;" parent="_ldEek01dWn288goBROa-1" vertex="1">
          <mxGeometry x="320" y="400" width="110" height="30" as="geometry" />
        </mxCell>
        <mxCell id="2WBaXO0WdWSvwOT-8Po4-4" style="edgeStyle=orthogonalEdgeStyle;rounded=0;orthogonalLoop=1;jettySize=auto;html=1;entryX=0.5;entryY=0;entryDx=0;entryDy=0;" parent="_ldEek01dWn288goBROa-1" source="FkX6k6BPDUjceksKh2U4-0" target="dyqIHnzsygk3jtkNoHMk-0" edge="1">
          <mxGeometry relative="1" as="geometry">
            <mxPoint x="570" y="680" as="targetPoint" />
            <Array as="points">
              <mxPoint x="715" y="555" />
            </Array>
          </mxGeometry>
        </mxCell>
        <mxCell id="2WBaXO0WdWSvwOT-8Po4-5" value="审核预约送货" style="edgeLabel;html=1;align=center;verticalAlign=middle;resizable=0;points=[];" parent="2WBaXO0WdWSvwOT-8Po4-4" vertex="1" connectable="0">
          <mxGeometry x="-0.0301" y="1" relative="1" as="geometry">
            <mxPoint x="112" y="-4" as="offset" />
          </mxGeometry>
        </mxCell>
        <mxCell id="FkX6k6BPDUjceksKh2U4-0" value="送货中" style="html=1;align=center;verticalAlign=top;rounded=1;absoluteArcSize=1;arcSize=10;dashed=1;fontSize=14;" parent="_ldEek01dWn288goBROa-1" vertex="1">
          <mxGeometry x="341" y="540" width="80" height="30" as="geometry" />
        </mxCell>
        <mxCell id="2WBaXO0WdWSvwOT-8Po4-0" value="&lt;b&gt;仓库&lt;/b&gt;" style="shape=umlLifeline;perimeter=lifelinePerimeter;whiteSpace=wrap;html=1;container=1;collapsible=0;recursiveResize=0;outlineConnect=0;dashed=1;fontSize=14;" parent="_ldEek01dWn288goBROa-1" vertex="1">
          <mxGeometry x="650" y="70" width="130" height="90" as="geometry" />
        </mxCell>
        <mxCell id="2WBaXO0WdWSvwOT-8Po4-1" value="" style="shape=partialRectangle;whiteSpace=wrap;html=1;bottom=0;fillColor=none;point=[];connectable=0;" parent="2WBaXO0WdWSvwOT-8Po4-0" vertex="1">
          <mxGeometry x="20" y="70" width="90" height="20" as="geometry" />
        </mxCell>
        <mxCell id="hFzMDckqWiLq4VEg0Lxh-1" style="edgeStyle=orthogonalEdgeStyle;rounded=0;orthogonalLoop=1;jettySize=auto;html=1;entryX=0.5;entryY=0;entryDx=0;entryDy=0;" parent="_ldEek01dWn288goBROa-1" source="2WBaXO0WdWSvwOT-8Po4-3" target="hFzMDckqWiLq4VEg0Lxh-0" edge="1">
          <mxGeometry relative="1" as="geometry" />
        </mxCell>
        <mxCell id="2WBaXO0WdWSvwOT-8Po4-3" value="送货完成" style="html=1;align=center;verticalAlign=top;rounded=1;absoluteArcSize=1;arcSize=10;dashed=1;fontSize=14;" parent="_ldEek01dWn288goBROa-1" vertex="1">
          <mxGeometry x="341" y="745" width="80" height="30" as="geometry" />
        </mxCell>
        <mxCell id="dyqIHnzsygk3jtkNoHMk-12" style="edgeStyle=orthogonalEdgeStyle;rounded=0;orthogonalLoop=1;jettySize=auto;html=1;" parent="_ldEek01dWn288goBROa-1" source="2WBaXO0WdWSvwOT-8Po4-6" edge="1">
          <mxGeometry relative="1" as="geometry">
            <mxPoint x="420" y="760" as="targetPoint" />
          </mxGeometry>
        </mxCell>
        <mxCell id="dyqIHnzsygk3jtkNoHMk-13" value="是" style="edgeLabel;html=1;align=center;verticalAlign=middle;resizable=0;points=[];" parent="dyqIHnzsygk3jtkNoHMk-12" vertex="1" connectable="0">
          <mxGeometry x="0.1137" y="3" relative="1" as="geometry">
            <mxPoint as="offset" />
          </mxGeometry>
        </mxCell>
        <mxCell id="2WBaXO0WdWSvwOT-8Po4-6" value="是否送货&lt;br&gt;完成" style="rhombus;whiteSpace=wrap;html=1;dashed=1;fontSize=14;" parent="_ldEek01dWn288goBROa-1" vertex="1">
          <mxGeometry x="670" y="720" width="90" height="80" as="geometry" />
        </mxCell>
        <mxCell id="hFzMDckqWiLq4VEg0Lxh-0" value="" style="ellipse;html=1;shape=endState;fillColor=#000000;strokeColor=#000000;align=left;" parent="_ldEek01dWn288goBROa-1" vertex="1">
          <mxGeometry x="366" y="850" width="30" height="30" as="geometry" />
        </mxCell>
        <mxCell id="dyqIHnzsygk3jtkNoHMk-8" value="是" style="edgeStyle=orthogonalEdgeStyle;rounded=0;orthogonalLoop=1;jettySize=auto;html=1;" parent="_ldEek01dWn288goBROa-1" source="dyqIHnzsygk3jtkNoHMk-0" target="2WBaXO0WdWSvwOT-8Po4-6" edge="1">
          <mxGeometry x="-0.6" relative="1" as="geometry">
            <Array as="points">
              <mxPoint x="715" y="730" />
              <mxPoint x="720" y="730" />
            </Array>
            <mxPoint as="offset" />
          </mxGeometry>
        </mxCell>
        <mxCell id="dyqIHnzsygk3jtkNoHMk-9" value="确认收货" style="edgeLabel;html=1;align=center;verticalAlign=middle;resizable=0;points=[];" parent="dyqIHnzsygk3jtkNoHMk-8" vertex="1" connectable="0">
          <mxGeometry x="0.38" relative="1" as="geometry">
            <mxPoint x="-2" as="offset" />
          </mxGeometry>
        </mxCell>
        <mxCell id="dyqIHnzsygk3jtkNoHMk-0" value="是否审核&lt;br&gt;通过" style="rhombus;whiteSpace=wrap;html=1;dashed=1;fontSize=14;" parent="_ldEek01dWn288goBROa-1" vertex="1">
          <mxGeometry x="675" y="580" width="80" height="80" as="geometry" />
        </mxCell>
      </root>
    </mxGraphModel>
  </diagram>
  <diagram id="6ijdAoBqBcJsme1R6xW2" name="报关资料状态">
    <mxGraphModel dx="946" dy="614" grid="1" gridSize="10" guides="1" tooltips="1" connect="1" arrows="1" fold="1" page="1" pageScale="1" pageWidth="827" pageHeight="1169" math="0" shadow="0">
      <root>
        <mxCell id="fQF4cIpYWBqpwaP4Sznh-0" />
        <mxCell id="fQF4cIpYWBqpwaP4Sznh-1" parent="fQF4cIpYWBqpwaP4Sznh-0" />
        <mxCell id="Q_3twrjJib7EJFoXvM5m-1" value="审核" style="edgeStyle=orthogonalEdgeStyle;rounded=0;orthogonalLoop=1;jettySize=auto;html=1;" parent="fQF4cIpYWBqpwaP4Sznh-1" source="JRFjgIoXaUGZ4jgQYYZz-0" target="Q_3twrjJib7EJFoXvM5m-0" edge="1">
          <mxGeometry relative="1" as="geometry">
            <Array as="points">
              <mxPoint x="340" y="185" />
            </Array>
          </mxGeometry>
        </mxCell>
        <mxCell id="JRFjgIoXaUGZ4jgQYYZz-0" value="待报关" style="html=1;align=center;verticalAlign=top;rounded=1;absoluteArcSize=1;arcSize=10;dashed=1;fontSize=14;" parent="fQF4cIpYWBqpwaP4Sznh-1" vertex="1">
          <mxGeometry x="160" y="170" width="80" height="30" as="geometry" />
        </mxCell>
        <mxCell id="Q6ql57nVsQ6J_ipJDz3U-1" style="edgeStyle=orthogonalEdgeStyle;rounded=0;orthogonalLoop=1;jettySize=auto;html=1;entryX=0.5;entryY=0;entryDx=0;entryDy=0;" parent="fQF4cIpYWBqpwaP4Sznh-1" source="bBWV2w4ygeJD39Cq3CZd-0" target="Q6ql57nVsQ6J_ipJDz3U-0" edge="1">
          <mxGeometry relative="1" as="geometry" />
        </mxCell>
        <mxCell id="bBWV2w4ygeJD39Cq3CZd-0" value="报关通过" style="html=1;align=center;verticalAlign=top;rounded=1;absoluteArcSize=1;arcSize=10;dashed=1;fontSize=14;" parent="fQF4cIpYWBqpwaP4Sznh-1" vertex="1">
          <mxGeometry x="160" y="370" width="80" height="30" as="geometry" />
        </mxCell>
        <mxCell id="67vIlUL98V7wzxoTokq3-2" value="&lt;span style=&quot;font-weight: 700&quot;&gt;供应商&lt;/span&gt;" style="shape=umlLifeline;perimeter=lifelinePerimeter;whiteSpace=wrap;html=1;container=1;collapsible=0;recursiveResize=0;outlineConnect=0;dashed=1;fontSize=14;" parent="fQF4cIpYWBqpwaP4Sznh-1" vertex="1">
          <mxGeometry x="60" y="40" width="100" height="90" as="geometry" />
        </mxCell>
        <mxCell id="67vIlUL98V7wzxoTokq3-3" value="" style="shape=partialRectangle;whiteSpace=wrap;html=1;bottom=0;fillColor=none;point=[];connectable=0;" parent="67vIlUL98V7wzxoTokq3-2" vertex="1">
          <mxGeometry x="20" y="70" width="70" height="20" as="geometry" />
        </mxCell>
        <mxCell id="67vIlUL98V7wzxoTokq3-4" value="&lt;span style=&quot;font-weight: 700&quot;&gt;关务员&lt;/span&gt;" style="shape=umlLifeline;perimeter=lifelinePerimeter;whiteSpace=wrap;html=1;container=1;collapsible=0;recursiveResize=0;outlineConnect=0;dashed=1;fontSize=14;" parent="fQF4cIpYWBqpwaP4Sznh-1" vertex="1">
          <mxGeometry x="260" y="40" width="120" height="100" as="geometry" />
        </mxCell>
        <mxCell id="67vIlUL98V7wzxoTokq3-5" value="" style="shape=partialRectangle;whiteSpace=wrap;html=1;bottom=0;fillColor=none;point=[];connectable=0;" parent="67vIlUL98V7wzxoTokq3-4" vertex="1">
          <mxGeometry x="10" y="80" width="100" height="20" as="geometry" />
        </mxCell>
        <mxCell id="p4JaFy4U0n44lRLslQBM-1" value="新建，并提交报关资料" style="edgeStyle=orthogonalEdgeStyle;rounded=0;orthogonalLoop=1;jettySize=auto;html=1;" parent="fQF4cIpYWBqpwaP4Sznh-1" source="p4JaFy4U0n44lRLslQBM-0" target="JRFjgIoXaUGZ4jgQYYZz-0" edge="1">
          <mxGeometry x="-0.0769" y="15" relative="1" as="geometry">
            <mxPoint as="offset" />
          </mxGeometry>
        </mxCell>
        <mxCell id="p4JaFy4U0n44lRLslQBM-0" value="" style="ellipse;fillColor=#000000;strokeColor=none;dashed=1;fontSize=14;" parent="fQF4cIpYWBqpwaP4Sznh-1" vertex="1">
          <mxGeometry y="170" width="30" height="30" as="geometry" />
        </mxCell>
        <mxCell id="Q_3twrjJib7EJFoXvM5m-2" style="edgeStyle=orthogonalEdgeStyle;rounded=0;orthogonalLoop=1;jettySize=auto;html=1;entryX=1;entryY=0.5;entryDx=0;entryDy=0;" parent="fQF4cIpYWBqpwaP4Sznh-1" source="Q_3twrjJib7EJFoXvM5m-0" target="bBWV2w4ygeJD39Cq3CZd-0" edge="1">
          <mxGeometry relative="1" as="geometry">
            <Array as="points">
              <mxPoint x="340" y="385" />
            </Array>
          </mxGeometry>
        </mxCell>
        <mxCell id="Q_3twrjJib7EJFoXvM5m-6" value="是" style="edgeLabel;html=1;align=center;verticalAlign=middle;resizable=0;points=[];" parent="Q_3twrjJib7EJFoXvM5m-2" vertex="1" connectable="0">
          <mxGeometry x="-0.0181" y="-2" relative="1" as="geometry">
            <mxPoint as="offset" />
          </mxGeometry>
        </mxCell>
        <mxCell id="Q_3twrjJib7EJFoXvM5m-4" style="edgeStyle=orthogonalEdgeStyle;rounded=0;orthogonalLoop=1;jettySize=auto;html=1;exitX=0;exitY=0.5;exitDx=0;exitDy=0;" parent="fQF4cIpYWBqpwaP4Sznh-1" source="uQZwi4-YiV77DDfzREvS-0" edge="1">
          <mxGeometry relative="1" as="geometry">
            <mxPoint x="160" y="200" as="targetPoint" />
            <Array as="points">
              <mxPoint x="90" y="275" />
              <mxPoint x="90" y="200" />
            </Array>
          </mxGeometry>
        </mxCell>
        <mxCell id="Q_3twrjJib7EJFoXvM5m-5" value="完善报关资料，提交" style="edgeLabel;html=1;align=center;verticalAlign=middle;resizable=0;points=[];" parent="Q_3twrjJib7EJFoXvM5m-4" vertex="1" connectable="0">
          <mxGeometry x="-0.1383" y="1" relative="1" as="geometry">
            <mxPoint x="1" y="-18" as="offset" />
          </mxGeometry>
        </mxCell>
        <mxCell id="uQZwi4-YiV77DDfzREvS-1" style="edgeStyle=orthogonalEdgeStyle;rounded=0;orthogonalLoop=1;jettySize=auto;html=1;entryX=1;entryY=0.5;entryDx=0;entryDy=0;" parent="fQF4cIpYWBqpwaP4Sznh-1" source="Q_3twrjJib7EJFoXvM5m-0" target="uQZwi4-YiV77DDfzREvS-0" edge="1">
          <mxGeometry relative="1" as="geometry">
            <Array as="points" />
          </mxGeometry>
        </mxCell>
        <mxCell id="uQZwi4-YiV77DDfzREvS-2" value="否" style="edgeLabel;html=1;align=center;verticalAlign=middle;resizable=0;points=[];" parent="uQZwi4-YiV77DDfzREvS-1" vertex="1" connectable="0">
          <mxGeometry x="0.4395" relative="1" as="geometry">
            <mxPoint x="13" as="offset" />
          </mxGeometry>
        </mxCell>
        <mxCell id="Q_3twrjJib7EJFoXvM5m-0" value="是否通过" style="rhombus;whiteSpace=wrap;html=1;dashed=1;fontSize=14;" parent="fQF4cIpYWBqpwaP4Sznh-1" vertex="1">
          <mxGeometry x="300" y="235" width="80" height="80" as="geometry" />
        </mxCell>
        <mxCell id="ivDSKHwTKHdXGigtkAMt-0" value="&lt;span style=&quot;color: rgb(0 , 0 , 0) ; font-family: &amp;#34;helvetica&amp;#34; ; font-size: 14px ; font-style: normal ; font-weight: 400 ; letter-spacing: normal ; text-align: center ; text-indent: 0px ; text-transform: none ; word-spacing: 0px ; background-color: rgb(255 , 255 , 255) ; display: inline ; float: none&quot;&gt;报关资料状态：待报关、报关通过、报关不通过&lt;/span&gt;" style="text;whiteSpace=wrap;html=1;" parent="fQF4cIpYWBqpwaP4Sznh-1" vertex="1">
          <mxGeometry width="320" height="30" as="geometry" />
        </mxCell>
        <mxCell id="uQZwi4-YiV77DDfzREvS-0" value="报关不通过" style="html=1;align=center;verticalAlign=top;rounded=1;absoluteArcSize=1;arcSize=10;dashed=1;fontSize=14;" parent="fQF4cIpYWBqpwaP4Sznh-1" vertex="1">
          <mxGeometry x="160" y="260" width="80" height="30" as="geometry" />
        </mxCell>
        <mxCell id="Q6ql57nVsQ6J_ipJDz3U-0" value="" style="ellipse;html=1;shape=endState;fillColor=#000000;strokeColor=#000000;align=left;" parent="fQF4cIpYWBqpwaP4Sznh-1" vertex="1">
          <mxGeometry x="185" y="470" width="30" height="30" as="geometry" />
        </mxCell>
      </root>
    </mxGraphModel>
  </diagram>
  <diagram id="h0q72thftM1mLwVmS1uI" name="预约送货状态">
    <mxGraphModel dx="788" dy="512" grid="1" gridSize="10" guides="1" tooltips="1" connect="1" arrows="1" fold="1" page="1" pageScale="1" pageWidth="827" pageHeight="1169" math="0" shadow="0">
      <root>
        <mxCell id="NrGTdXwKsuSvhwLVD3kB-0" />
        <mxCell id="NrGTdXwKsuSvhwLVD3kB-1" parent="NrGTdXwKsuSvhwLVD3kB-0" />
        <mxCell id="oWxkjYNY41xj63wpZpXJ-0" value="&lt;font style=&quot;font-size: 11px&quot;&gt;新建并提交预约送货&lt;/font&gt;" style="edgeStyle=orthogonalEdgeStyle;rounded=0;orthogonalLoop=1;jettySize=auto;html=1;fontSize=14;" parent="NrGTdXwKsuSvhwLVD3kB-1" source="oWxkjYNY41xj63wpZpXJ-1" target="oWxkjYNY41xj63wpZpXJ-4" edge="1">
          <mxGeometry relative="1" as="geometry" />
        </mxCell>
        <mxCell id="oWxkjYNY41xj63wpZpXJ-1" value="" style="ellipse;fillColor=#000000;strokeColor=none;dashed=1;fontSize=14;" parent="NrGTdXwKsuSvhwLVD3kB-1" vertex="1">
          <mxGeometry y="170" width="30" height="30" as="geometry" />
        </mxCell>
        <mxCell id="Zb2wwmfp9pNk0iX7z0IZ-2" style="edgeStyle=orthogonalEdgeStyle;rounded=0;orthogonalLoop=1;jettySize=auto;html=1;entryX=0.5;entryY=0;entryDx=0;entryDy=0;" parent="NrGTdXwKsuSvhwLVD3kB-1" source="oWxkjYNY41xj63wpZpXJ-4" target="0rEil4EQntD7lXX6DLYS-0" edge="1">
          <mxGeometry relative="1" as="geometry">
            <Array as="points">
              <mxPoint x="335" y="185" />
            </Array>
          </mxGeometry>
        </mxCell>
        <mxCell id="Zb2wwmfp9pNk0iX7z0IZ-3" value="受理" style="edgeLabel;html=1;align=center;verticalAlign=middle;resizable=0;points=[];" parent="Zb2wwmfp9pNk0iX7z0IZ-2" vertex="1" connectable="0">
          <mxGeometry x="0.0165" y="-2" relative="1" as="geometry">
            <mxPoint as="offset" />
          </mxGeometry>
        </mxCell>
        <mxCell id="oWxkjYNY41xj63wpZpXJ-4" value="预约中" style="html=1;align=center;verticalAlign=top;rounded=1;absoluteArcSize=1;arcSize=10;dashed=1;fontSize=14;" parent="NrGTdXwKsuSvhwLVD3kB-1" vertex="1">
          <mxGeometry x="146" y="170" width="80" height="30" as="geometry" />
        </mxCell>
        <mxCell id="oWxkjYNY41xj63wpZpXJ-7" value="受理中" style="html=1;align=center;verticalAlign=top;rounded=1;absoluteArcSize=1;arcSize=10;dashed=1;fontSize=14;" parent="NrGTdXwKsuSvhwLVD3kB-1" vertex="1">
          <mxGeometry x="149.5" y="310" width="86" height="30" as="geometry" />
        </mxCell>
        <mxCell id="oWxkjYNY41xj63wpZpXJ-9" value="送货中" style="html=1;align=center;verticalAlign=top;rounded=1;absoluteArcSize=1;arcSize=10;dashed=1;fontSize=14;" parent="NrGTdXwKsuSvhwLVD3kB-1" vertex="1">
          <mxGeometry x="160" y="595" width="86" height="30" as="geometry" />
        </mxCell>
        <mxCell id="oWxkjYNY41xj63wpZpXJ-13" value="" style="edgeStyle=orthogonalEdgeStyle;rounded=0;orthogonalLoop=1;jettySize=auto;html=1;fontSize=14;" parent="NrGTdXwKsuSvhwLVD3kB-1" source="oWxkjYNY41xj63wpZpXJ-9" target="oWxkjYNY41xj63wpZpXJ-17" edge="1">
          <mxGeometry relative="1" as="geometry">
            <mxPoint x="984" y="435" as="sourcePoint" />
            <Array as="points">
              <mxPoint x="364" y="610" />
              <mxPoint x="364" y="698" />
            </Array>
          </mxGeometry>
        </mxCell>
        <mxCell id="oWxkjYNY41xj63wpZpXJ-14" value="确认收货" style="edgeLabel;html=1;align=center;verticalAlign=middle;resizable=0;points=[];fontSize=14;" parent="oWxkjYNY41xj63wpZpXJ-13" vertex="1" connectable="0">
          <mxGeometry x="0.2923" y="4" relative="1" as="geometry">
            <mxPoint x="-4" y="-46" as="offset" />
          </mxGeometry>
        </mxCell>
        <mxCell id="oWxkjYNY41xj63wpZpXJ-16" value="" style="edgeStyle=orthogonalEdgeStyle;rounded=0;orthogonalLoop=1;jettySize=auto;html=1;fontSize=14;" parent="NrGTdXwKsuSvhwLVD3kB-1" source="oWxkjYNY41xj63wpZpXJ-17" target="oWxkjYNY41xj63wpZpXJ-30" edge="1">
          <mxGeometry relative="1" as="geometry" />
        </mxCell>
        <mxCell id="oWxkjYNY41xj63wpZpXJ-17" value="已收货" style="html=1;align=center;verticalAlign=top;rounded=1;absoluteArcSize=1;arcSize=10;dashed=1;fontSize=14;" parent="NrGTdXwKsuSvhwLVD3kB-1" vertex="1">
          <mxGeometry x="164" y="680" width="90" height="35" as="geometry" />
        </mxCell>
        <mxCell id="oWxkjYNY41xj63wpZpXJ-30" value="" style="ellipse;html=1;shape=endState;fillColor=#000000;strokeColor=#000000;dashed=1;fontSize=14;" parent="NrGTdXwKsuSvhwLVD3kB-1" vertex="1">
          <mxGeometry x="194" y="770" width="30" height="30" as="geometry" />
        </mxCell>
        <mxCell id="u4TR1tQ790ZZtWDmz329-2" value="&lt;span style=&quot;font-weight: 700&quot;&gt;供应商&lt;/span&gt;" style="shape=umlLifeline;perimeter=lifelinePerimeter;whiteSpace=wrap;html=1;container=1;collapsible=0;recursiveResize=0;outlineConnect=0;dashed=1;fontSize=14;" parent="NrGTdXwKsuSvhwLVD3kB-1" vertex="1">
          <mxGeometry x="46" y="70" width="100" height="70" as="geometry" />
        </mxCell>
        <mxCell id="u4TR1tQ790ZZtWDmz329-3" value="" style="shape=partialRectangle;whiteSpace=wrap;html=1;bottom=0;fillColor=none;point=[];connectable=0;" parent="u4TR1tQ790ZZtWDmz329-2" vertex="1">
          <mxGeometry x="30" y="70" width="40" height="20" as="geometry" />
        </mxCell>
        <mxCell id="Zb2wwmfp9pNk0iX7z0IZ-0" value="&lt;span style=&quot;font-weight: 700&quot;&gt;仓库&lt;/span&gt;" style="shape=umlLifeline;perimeter=lifelinePerimeter;whiteSpace=wrap;html=1;container=1;collapsible=0;recursiveResize=0;outlineConnect=0;dashed=1;fontSize=14;" parent="NrGTdXwKsuSvhwLVD3kB-1" vertex="1">
          <mxGeometry x="280" y="70" width="110" height="90" as="geometry" />
        </mxCell>
        <mxCell id="Zb2wwmfp9pNk0iX7z0IZ-1" value="" style="shape=partialRectangle;whiteSpace=wrap;html=1;bottom=0;fillColor=none;point=[];connectable=0;" parent="Zb2wwmfp9pNk0iX7z0IZ-0" vertex="1">
          <mxGeometry x="10" y="80" width="90" height="20" as="geometry" />
        </mxCell>
        <mxCell id="lsUSNsDvOHD2MLw5vu6b-0" value="&lt;div&gt;&lt;br&gt;&lt;/div&gt;" style="text;whiteSpace=wrap;html=1;align=left;" parent="NrGTdXwKsuSvhwLVD3kB-1" vertex="1">
          <mxGeometry x="21" y="660" width="150" height="30" as="geometry" />
        </mxCell>
        <mxCell id="0rEil4EQntD7lXX6DLYS-1" style="edgeStyle=orthogonalEdgeStyle;rounded=0;orthogonalLoop=1;jettySize=auto;html=1;entryX=1;entryY=0.75;entryDx=0;entryDy=0;" parent="NrGTdXwKsuSvhwLVD3kB-1" target="oWxkjYNY41xj63wpZpXJ-7" edge="1">
          <mxGeometry relative="1" as="geometry">
            <Array as="points">
              <mxPoint x="338.5" y="323" />
              <mxPoint x="267.5" y="323" />
            </Array>
            <mxPoint x="338.5" y="300" as="sourcePoint" />
          </mxGeometry>
        </mxCell>
        <mxCell id="0rEil4EQntD7lXX6DLYS-2" value="是" style="edgeLabel;html=1;align=center;verticalAlign=middle;resizable=0;points=[];" parent="0rEil4EQntD7lXX6DLYS-1" vertex="1" connectable="0">
          <mxGeometry x="0.0952" y="1" relative="1" as="geometry">
            <mxPoint as="offset" />
          </mxGeometry>
        </mxCell>
        <mxCell id="0rEil4EQntD7lXX6DLYS-3" style="edgeStyle=orthogonalEdgeStyle;rounded=0;orthogonalLoop=1;jettySize=auto;html=1;entryX=0;entryY=0.75;entryDx=0;entryDy=0;exitX=0.75;exitY=0;exitDx=0;exitDy=0;" parent="NrGTdXwKsuSvhwLVD3kB-1" source="vfOb-i4gzEUMM2uwZXCx-1" target="oWxkjYNY41xj63wpZpXJ-4" edge="1">
          <mxGeometry relative="1" as="geometry">
            <Array as="points">
              <mxPoint x="200" y="470" />
              <mxPoint x="200" y="485" />
              <mxPoint x="126" y="485" />
              <mxPoint x="126" y="193" />
            </Array>
          </mxGeometry>
        </mxCell>
        <mxCell id="0rEil4EQntD7lXX6DLYS-5" value="修改预约送货" style="edgeLabel;html=1;align=center;verticalAlign=middle;resizable=0;points=[];" parent="0rEil4EQntD7lXX6DLYS-3" vertex="1" connectable="0">
          <mxGeometry x="0.6218" relative="1" as="geometry">
            <mxPoint x="-11" y="28" as="offset" />
          </mxGeometry>
        </mxCell>
        <mxCell id="0rEil4EQntD7lXX6DLYS-0" value="是否受理" style="rhombus;whiteSpace=wrap;html=1;dashed=1;fontSize=14;" parent="NrGTdXwKsuSvhwLVD3kB-1" vertex="1">
          <mxGeometry x="295" y="220" width="80" height="80" as="geometry" />
        </mxCell>
        <mxCell id="vfOb-i4gzEUMM2uwZXCx-0" value="&lt;span style=&quot;color: rgb(0 , 0 , 0) ; font-family: &amp;#34;helvetica&amp;#34; ; font-size: 14px ; font-style: normal ; font-weight: 400 ; letter-spacing: normal ; text-align: center ; text-indent: 0px ; text-transform: none ; word-spacing: 0px ; background-color: rgb(255 , 255 , 255) ; display: inline ; float: none&quot;&gt;预约送货状态：预约中、预约失败、受理中、送货中、已收货&lt;br&gt;&lt;div style=&quot;font-family: &amp;#34;helvetica&amp;#34; ; font-size: 12px ; text-align: left ; background-color: rgb(248 , 249 , 250)&quot;&gt;&lt;font face=&quot;helvetica&quot;&gt;&lt;span style=&quot;font-size: 14px ; background-color: rgb(255 , 255 , 255)&quot;&gt;订单明细状态为报关通过的，才能新建预约送货&lt;/span&gt;&lt;/font&gt;&lt;/div&gt;&lt;div&gt;&lt;font face=&quot;helvetica&quot;&gt;&lt;span style=&quot;font-size: 14px ; background-color: rgb(255 , 255 , 255)&quot;&gt;&lt;br&gt;&lt;/span&gt;&lt;/font&gt;&lt;/div&gt;&lt;/span&gt;" style="text;whiteSpace=wrap;html=1;" parent="NrGTdXwKsuSvhwLVD3kB-1" vertex="1">
          <mxGeometry width="410" height="30" as="geometry" />
        </mxCell>
        <mxCell id="vfOb-i4gzEUMM2uwZXCx-1" value="预约失败" style="html=1;align=center;verticalAlign=top;rounded=1;absoluteArcSize=1;arcSize=10;dashed=1;fontSize=14;" parent="NrGTdXwKsuSvhwLVD3kB-1" vertex="1">
          <mxGeometry x="149.5" y="470" width="80" height="30" as="geometry" />
        </mxCell>
        <mxCell id="x9eT3nk-wUfIPO272hhU-0" value="是否通过" style="rhombus;whiteSpace=wrap;html=1;dashed=1;fontSize=14;" vertex="1" parent="NrGTdXwKsuSvhwLVD3kB-1">
          <mxGeometry x="295" y="380" width="80" height="80" as="geometry" />
        </mxCell>
        <mxCell id="x9eT3nk-wUfIPO272hhU-1" value="" style="endArrow=classic;html=1;exitX=0.5;exitY=1;exitDx=0;exitDy=0;" edge="1" parent="NrGTdXwKsuSvhwLVD3kB-1" source="oWxkjYNY41xj63wpZpXJ-7">
          <mxGeometry width="50" height="50" relative="1" as="geometry">
            <mxPoint x="170" y="450" as="sourcePoint" />
            <mxPoint x="290" y="420" as="targetPoint" />
            <Array as="points">
              <mxPoint x="193" y="420" />
            </Array>
          </mxGeometry>
        </mxCell>
        <mxCell id="x9eT3nk-wUfIPO272hhU-2" value="1、报关资料审核、&lt;br&gt;2、车辆预约报关" style="edgeLabel;html=1;align=center;verticalAlign=middle;resizable=0;points=[];" vertex="1" connectable="0" parent="x9eT3nk-wUfIPO272hhU-1">
          <mxGeometry x="0.0396" y="3" relative="1" as="geometry">
            <mxPoint as="offset" />
          </mxGeometry>
        </mxCell>
        <mxCell id="x9eT3nk-wUfIPO272hhU-3" value="" style="endArrow=classic;html=1;exitX=0.5;exitY=1;exitDx=0;exitDy=0;entryX=1;entryY=0.5;entryDx=0;entryDy=0;" edge="1" parent="NrGTdXwKsuSvhwLVD3kB-1" source="x9eT3nk-wUfIPO272hhU-0" target="vfOb-i4gzEUMM2uwZXCx-1">
          <mxGeometry width="50" height="50" relative="1" as="geometry">
            <mxPoint x="310" y="540" as="sourcePoint" />
            <mxPoint x="230" y="490" as="targetPoint" />
            <Array as="points">
              <mxPoint x="335" y="485" />
            </Array>
          </mxGeometry>
        </mxCell>
        <mxCell id="x9eT3nk-wUfIPO272hhU-4" value="否" style="edgeLabel;html=1;align=center;verticalAlign=middle;resizable=0;points=[];" vertex="1" connectable="0" parent="x9eT3nk-wUfIPO272hhU-3">
          <mxGeometry x="-0.3861" relative="1" as="geometry">
            <mxPoint as="offset" />
          </mxGeometry>
        </mxCell>
        <mxCell id="x9eT3nk-wUfIPO272hhU-5" value="" style="endArrow=classic;html=1;entryX=0;entryY=0.5;entryDx=0;entryDy=0;exitX=1;exitY=0.5;exitDx=0;exitDy=0;" edge="1" parent="NrGTdXwKsuSvhwLVD3kB-1" source="x9eT3nk-wUfIPO272hhU-0" target="oWxkjYNY41xj63wpZpXJ-9">
          <mxGeometry width="50" height="50" relative="1" as="geometry">
            <mxPoint x="380" y="420" as="sourcePoint" />
            <mxPoint x="510" y="460" as="targetPoint" />
            <Array as="points">
              <mxPoint x="375" y="530" />
              <mxPoint x="120" y="530" />
              <mxPoint x="120" y="610" />
            </Array>
          </mxGeometry>
        </mxCell>
        <mxCell id="x9eT3nk-wUfIPO272hhU-6" value="是" style="edgeLabel;html=1;align=center;verticalAlign=middle;resizable=0;points=[];" vertex="1" connectable="0" parent="x9eT3nk-wUfIPO272hhU-5">
          <mxGeometry x="-0.4776" y="-1" relative="1" as="geometry">
            <mxPoint as="offset" />
          </mxGeometry>
        </mxCell>
        <mxCell id="x9eT3nk-wUfIPO272hhU-7" value="" style="endArrow=classic;html=1;exitX=0;exitY=0.5;exitDx=0;exitDy=0;entryX=0.5;entryY=0;entryDx=0;entryDy=0;" edge="1" parent="NrGTdXwKsuSvhwLVD3kB-1" source="0rEil4EQntD7lXX6DLYS-0" target="0rEil4EQntD7lXX6DLYS-0">
          <mxGeometry width="50" height="50" relative="1" as="geometry">
            <mxPoint x="210" y="270" as="sourcePoint" />
            <mxPoint x="260" y="220" as="targetPoint" />
            <Array as="points">
              <mxPoint x="270" y="260" />
              <mxPoint x="270" y="240" />
              <mxPoint x="270" y="220" />
              <mxPoint x="295" y="220" />
            </Array>
          </mxGeometry>
        </mxCell>
        <mxCell id="x9eT3nk-wUfIPO272hhU-8" value="否" style="edgeLabel;html=1;align=center;verticalAlign=middle;resizable=0;points=[];" vertex="1" connectable="0" parent="x9eT3nk-wUfIPO272hhU-7">
          <mxGeometry x="-0.2" y="-3" relative="1" as="geometry">
            <mxPoint as="offset" />
          </mxGeometry>
        </mxCell>
      </root>
    </mxGraphModel>
  </diagram>
  <diagram id="swtRr1QWvug7UBX4C43w" name="Page-10">
    <mxGraphModel dx="946" dy="614" grid="1" gridSize="10" guides="1" tooltips="1" connect="1" arrows="1" fold="1" page="1" pageScale="1" pageWidth="827" pageHeight="1169" math="0" shadow="0">
      <root>
        <mxCell id="urnf3qFD-qRXzGiQsezQ-0" />
        <mxCell id="urnf3qFD-qRXzGiQsezQ-1" parent="urnf3qFD-qRXzGiQsezQ-0" />
        <mxCell id="urnf3qFD-qRXzGiQsezQ-26" value="" style="edgeStyle=orthogonalEdgeStyle;rounded=0;orthogonalLoop=1;jettySize=auto;html=1;startArrow=ERone;startFill=0;endArrow=ERoneToMany;endFill=0;" parent="urnf3qFD-qRXzGiQsezQ-1" source="urnf3qFD-qRXzGiQsezQ-2" target="urnf3qFD-qRXzGiQsezQ-3" edge="1">
          <mxGeometry relative="1" as="geometry" />
        </mxCell>
        <mxCell id="urnf3qFD-qRXzGiQsezQ-2" value="订单" style="whiteSpace=wrap;html=1;align=center;" parent="urnf3qFD-qRXzGiQsezQ-1" vertex="1">
          <mxGeometry x="250" y="80" width="100" height="40" as="geometry" />
        </mxCell>
        <mxCell id="urnf3qFD-qRXzGiQsezQ-3" value="订单明细" style="whiteSpace=wrap;html=1;align=center;" parent="urnf3qFD-qRXzGiQsezQ-1" vertex="1">
          <mxGeometry x="250" y="220" width="100" height="40" as="geometry" />
        </mxCell>
        <mxCell id="urnf3qFD-qRXzGiQsezQ-4" value="报关" style="whiteSpace=wrap;html=1;align=center;" parent="urnf3qFD-qRXzGiQsezQ-1" vertex="1">
          <mxGeometry x="200" y="420" width="100" height="40" as="geometry" />
        </mxCell>
        <mxCell id="urnf3qFD-qRXzGiQsezQ-5" value="预约" style="whiteSpace=wrap;html=1;align=center;" parent="urnf3qFD-qRXzGiQsezQ-1" vertex="1">
          <mxGeometry x="380" y="420" width="100" height="40" as="geometry" />
        </mxCell>
        <mxCell id="urnf3qFD-qRXzGiQsezQ-6" value="产品" style="whiteSpace=wrap;html=1;align=center;" parent="urnf3qFD-qRXzGiQsezQ-1" vertex="1">
          <mxGeometry x="510" y="220" width="100" height="40" as="geometry" />
        </mxCell>
        <mxCell id="urnf3qFD-qRXzGiQsezQ-22" value="" style="endArrow=ERoneToMany;html=1;rounded=0;entryX=0.5;entryY=0;entryDx=0;entryDy=0;exitX=0.83;exitY=0.975;exitDx=0;exitDy=0;exitPerimeter=0;startArrow=ERoneToMany;startFill=0;endFill=0;" parent="urnf3qFD-qRXzGiQsezQ-1" source="urnf3qFD-qRXzGiQsezQ-3" target="urnf3qFD-qRXzGiQsezQ-5" edge="1">
          <mxGeometry relative="1" as="geometry">
            <mxPoint x="334" y="320" as="sourcePoint" />
            <mxPoint x="494" y="320" as="targetPoint" />
          </mxGeometry>
        </mxCell>
        <mxCell id="urnf3qFD-qRXzGiQsezQ-24" value="" style="endArrow=ERone;html=1;rounded=0;exitX=0.5;exitY=1;exitDx=0;exitDy=0;entryX=0.5;entryY=0;entryDx=0;entryDy=0;startArrow=ERoneToMany;startFill=0;endFill=0;" parent="urnf3qFD-qRXzGiQsezQ-1" source="urnf3qFD-qRXzGiQsezQ-3" target="urnf3qFD-qRXzGiQsezQ-4" edge="1">
          <mxGeometry relative="1" as="geometry">
            <mxPoint x="180" y="400" as="sourcePoint" />
            <mxPoint x="340" y="400" as="targetPoint" />
          </mxGeometry>
        </mxCell>
        <mxCell id="urnf3qFD-qRXzGiQsezQ-25" value="" style="endArrow=ERone;html=1;rounded=0;startArrow=ERoneToMany;startFill=0;endFill=0;" parent="urnf3qFD-qRXzGiQsezQ-1" edge="1">
          <mxGeometry relative="1" as="geometry">
            <mxPoint x="350" y="240" as="sourcePoint" />
            <mxPoint x="510" y="240" as="targetPoint" />
          </mxGeometry>
        </mxCell>
        <mxCell id="urnf3qFD-qRXzGiQsezQ-28" value="" style="edgeStyle=orthogonalEdgeStyle;rounded=0;orthogonalLoop=1;jettySize=auto;html=1;startArrow=ERone;startFill=0;endArrow=ERoneToMany;endFill=0;" parent="urnf3qFD-qRXzGiQsezQ-1" source="urnf3qFD-qRXzGiQsezQ-27" target="urnf3qFD-qRXzGiQsezQ-2" edge="1">
          <mxGeometry relative="1" as="geometry" />
        </mxCell>
        <mxCell id="urnf3qFD-qRXzGiQsezQ-27" value="供应商" style="whiteSpace=wrap;html=1;align=center;" parent="urnf3qFD-qRXzGiQsezQ-1" vertex="1">
          <mxGeometry x="70" y="80" width="100" height="40" as="geometry" />
        </mxCell>
      </root>
    </mxGraphModel>
  </diagram>
</mxfile>
